<?xml version="1.0" encoding="UTF-8"?>
<svg xmlns:xlink="http://www.w3.org/1999/xlink" xmlns="http://www.w3.org/2000/svg" contentScriptType="text/ecmascript" width="798" zoomAndPan="magnify" contentStyleType="text/css" height="475" preserveAspectRatio="xMidYMid meet" version="1.0">
    <defs/>
    <rect fill="#ffffff" x="0" width="798" height="475" y="0"/>
    <path style="fill:#ff0000;fill-rule:evenodd;stroke:none;fill-opacity:0.4" d="M 213.000000,112.000000 460.000000,195.000000 383.000000,297.000000 291.000000,299.000000 173.000000,237.000000 142.000000,179.000000 127.000000,119.000000 126.000000,69.000000 180.000000,44.000000 309.000000,41.000000 452.000000,95.000000 510.000000,151.000000 561.000000,210.000000 552.000000,249.000000 525.000000,286.000000 495.000000,321.000000 445.000000,346.000000 374.000000,360.000000 330.000000,352.000000 256.000000,341.000000 177.000000,311.000000 141.000000,288.000000 103.000000,242.000000 86.000000,208.000000 79.000000,159.000000 82.000000,95.000000 104.000000,40.000000 147.000000,19.000000 219.000000,10.000000 296.000000,8.000000 375.000000,19.000000 432.000000,43.000000 518.000000,76.000000 610.000000,139.000000 623.000000,350.000000 345.000000,447.000000 79.000000,388.000000 53.000000,344.000000 19.000000,225.000000 20.000000,154.000000 32.000000,95.000000 42.000000,17.000000 80.000000,32.000000 70.000000,104.000000 47.000000,168.000000 57.000000,236.000000 82.000000,277.000000 115.000000,320.000000 153.000000,343.000000 197.000000,354.000000 262.000000,374.000000 367.000000,395.000000 420.000000,390.000000 481.000000,365.000000 545.000000,330.000000 573.000000,283.000000 583.000000,247.000000 589.000000,199.000000 565.000000,157.000000 529.000000,121.000000 488.000000,96.000000 459.000000,79.000000 430.000000,65.000000 398.000000,51.000000 355.000000,44.000000 323.000000,35.000000 294.000000,31.000000 236.000000,30.000000 194.000000,32.000000 146.000000,41.000000 118.000000,57.000000 107.000000,88.000000 104.000000,125.000000 109.000000,163.000000 124.000000,201.000000 155.000000,240.000000 185.000000,275.000000 233.000000,296.000000 276.000000,311.000000 326.000000,322.000000 367.000000,322.000000 422.000000,309.000000 464.000000,274.000000 487.000000,233.000000 491.000000,189.000000 471.000000,157.000000 448.000000,143.000000 382.000000,113.000000 326.000000,93.000000 287.000000,78.000000 230.000000,69.000000 180.000000,62.000000 143.000000,78.000000 142.000000,121.000000 153.000000,168.000000 186.000000,219.000000 233.000000,253.000000 275.000000,264.000000 330.000000,275.000000 369.000000,262.000000 394.000000,238.000000 397.000000,205.000000 348.000000,186.000000 307.000000,176.000000 269.000000,160.000000 247.000000,152.000000 211.000000,146.000000 208.000000,151.000000 210.000000,170.000000 259.000000,189.000000 308.000000,201.000000 347.000000,215.000000 342.000000,236.000000 281.000000,240.000000 236.000000,223.000000 210.000000,198.000000 180.000000,153.000000 178.000000,121.000000 Z"/>
    <path style="fill:#f2800d;fill-rule:evenodd;stroke:none;fill-opacity:1.0" d="M 345.000000,447.000000 623.000000,350.000000 610.000000,139.000000 518.000000,76.000000 432.000000,43.000000 375.000000,19.000000 296.000000,8.000000 219.000000,10.000000 147.000000,19.000000 236.000000,30.000000 294.000000,31.000000 323.000000,35.000000 355.000000,44.000000 398.000000,51.000000 430.000000,65.000000 459.000000,79.000000 488.000000,96.000000 529.000000,121.000000 565.000000,157.000000 589.000000,199.000000 583.000000,247.000000 573.000000,283.000000 545.000000,330.000000 481.000000,365.000000 420.000000,390.000000 367.000000,395.000000 Z"/>
    <path style="fill:#0d7ef2;fill-rule:evenodd;stroke:none;fill-opacity:1.0" d="M 367.000000,395.000000 262.000000,374.000000 197.000000,354.000000 153.000000,343.000000 115.000000,320.000000 82.000000,277.000000 57.000000,236.000000 47.000000,168.000000 70.000000,104.000000 80.000000,32.000000 42.000000,17.000000 32.000000,95.000000 20.000000,154.000000 19.000000,225.000000 53.000000,344.000000 79.000000,388.000000 345.000000,447.000000 Z"/>
    <path style="fill:#0d7ef2;fill-rule:evenodd;stroke:none;fill-opacity:1.0" d="M 180.000000,62.000000 230.000000,69.000000 287.000000,78.000000 326.000000,93.000000 382.000000,113.000000 448.000000,143.000000 471.000000,157.000000 491.000000,189.000000 487.000000,233.000000 464.000000,274.000000 422.000000,309.000000 367.000000,322.000000 326.000000,322.000000 276.000000,311.000000 233.000000,296.000000 185.000000,275.000000 155.000000,240.000000 124.000000,201.000000 109.000000,163.000000 104.000000,125.000000 107.000000,88.000000 118.000000,57.000000 146.000000,41.000000 194.000000,32.000000 236.000000,30.000000 147.000000,19.000000 104.000000,40.000000 82.000000,95.000000 79.000000,159.000000 86.000000,208.000000 103.000000,242.000000 141.000000,288.000000 177.000000,311.000000 256.000000,341.000000 330.000000,352.000000 374.000000,360.000000 445.000000,346.000000 495.000000,321.000000 525.000000,286.000000 552.000000,249.000000 561.000000,210.000000 510.000000,151.000000 452.000000,95.000000 309.000000,41.000000 180.000000,44.000000 Z"/>
    <path style="fill:#0d7af2;fill-rule:evenodd;stroke:none;fill-opacity:1.0" d="M 383.000000,297.000000 460.000000,195.000000 213.000000,112.000000 178.000000,121.000000 211.000000,146.000000 247.000000,152.000000 269.000000,160.000000 307.000000,176.000000 348.000000,186.000000 397.000000,205.000000 394.000000,238.000000 369.000000,262.000000 330.000000,275.000000 Z"/>
    <path style="fill:#f2830d;fill-rule:evenodd;stroke:none;fill-opacity:1.0" d="M 330.000000,275.000000 275.000000,264.000000 233.000000,253.000000 186.000000,219.000000 153.000000,168.000000 142.000000,121.000000 143.000000,78.000000 180.000000,62.000000 180.000000,44.000000 126.000000,69.000000 127.000000,119.000000 142.000000,179.000000 173.000000,237.000000 291.000000,299.000000 383.000000,297.000000 Z"/>
    <path style="fill:#f2870d;fill-rule:evenodd;stroke:none;fill-opacity:1.0" d="M 178.000000,121.000000 180.000000,153.000000 210.000000,198.000000 236.000000,223.000000 281.000000,240.000000 342.000000,236.000000 347.000000,215.000000 308.000000,201.000000 259.000000,189.000000 210.000000,170.000000 208.000000,151.000000 211.000000,146.000000 Z"/>
    <path style="fill:#ffffff;fill-rule:evenodd;stroke:none;fill-opacity:0.0" d="M 375.000000,19.000000 296.000000,8.000000 147.000000,19.000000 Z"/>
    <path style="fill:#ffffff;fill-rule:evenodd;stroke:none;fill-opacity:0.0" d="M 432.000000,43.000000 375.000000,19.000000 323.000000,35.000000 Z"/>
    <path style="fill:#ffffff;fill-rule:evenodd;stroke:none;fill-opacity:0.0" d="M 518.000000,76.000000 432.000000,43.000000 430.000000,65.000000 Z"/>
    <path style="fill:#ffffff;fill-rule:evenodd;stroke:none;fill-opacity:0.0" d="M 610.000000,139.000000 518.000000,76.000000 529.000000,121.000000 Z"/>
    <path style="fill:#ffffff;fill-rule:evenodd;stroke:none;fill-opacity:0.0" d="M 623.000000,350.000000 610.000000,139.000000 583.000000,247.000000 Z"/>
    <path style="fill:#ffffff;fill-rule:evenodd;stroke:none;fill-opacity:0.4666666666666667" d="M 583.000000,247.000000 573.000000,283.000000 623.000000,350.000000 Z"/>
    <path style="fill:#ffffff;fill-rule:evenodd;stroke:none;fill-opacity:0.0" d="M 573.000000,283.000000 545.000000,330.000000 623.000000,350.000000 Z"/>
    <path style="fill:#ffffff;fill-rule:evenodd;stroke:none;fill-opacity:0.4666666666666667" d="M 345.000000,447.000000 623.000000,350.000000 420.000000,390.000000 Z"/>
    <path style="fill:#ffffff;fill-rule:evenodd;stroke:none;fill-opacity:0.0" d="M 420.000000,390.000000 367.000000,395.000000 345.000000,447.000000 Z"/>
    <path style="fill:#ffffff;fill-rule:evenodd;stroke:none;fill-opacity:0.0" d="M 623.000000,350.000000 481.000000,365.000000 420.000000,390.000000 Z"/>
    <path style="fill:#ffffff;fill-rule:evenodd;stroke:none;fill-opacity:0.4666666666666667" d="M 623.000000,350.000000 545.000000,330.000000 481.000000,365.000000 Z"/>
    <path style="fill:#ffffff;fill-rule:evenodd;stroke:none;fill-opacity:0.4666666666666667" d="M 610.000000,139.000000 589.000000,199.000000 583.000000,247.000000 Z"/>
    <path style="fill:#ffffff;fill-rule:evenodd;stroke:none;fill-opacity:0.0" d="M 610.000000,139.000000 565.000000,157.000000 589.000000,199.000000 Z"/>
    <path style="fill:#ffffff;fill-rule:evenodd;stroke:none;fill-opacity:0.4666666666666667" d="M 610.000000,139.000000 529.000000,121.000000 565.000000,157.000000 Z"/>
    <path style="fill:#ffffff;fill-rule:evenodd;stroke:none;fill-opacity:0.4666666666666667" d="M 518.000000,76.000000 488.000000,96.000000 529.000000,121.000000 Z"/>
    <path style="fill:#ffffff;fill-rule:evenodd;stroke:none;fill-opacity:0.0" d="M 518.000000,76.000000 459.000000,79.000000 488.000000,96.000000 Z"/>
    <path style="fill:#ffffff;fill-rule:evenodd;stroke:none;fill-opacity:0.4666666666666667" d="M 518.000000,76.000000 430.000000,65.000000 459.000000,79.000000 Z"/>
    <path style="fill:#ffffff;fill-rule:evenodd;stroke:none;fill-opacity:0.4666666666666667" d="M 432.000000,43.000000 398.000000,51.000000 430.000000,65.000000 Z"/>
    <path style="fill:#ffffff;fill-rule:evenodd;stroke:none;fill-opacity:0.0" d="M 432.000000,43.000000 355.000000,44.000000 398.000000,51.000000 Z"/>
    <path style="fill:#ffffff;fill-rule:evenodd;stroke:none;fill-opacity:0.4666666666666667" d="M 432.000000,43.000000 323.000000,35.000000 355.000000,44.000000 Z"/>
    <path style="fill:#ffffff;fill-rule:evenodd;stroke:none;fill-opacity:0.4666666666666667" d="M 375.000000,19.000000 294.000000,31.000000 323.000000,35.000000 Z"/>
    <path style="fill:#ffffff;fill-rule:evenodd;stroke:none;fill-opacity:0.0" d="M 375.000000,19.000000 236.000000,30.000000 294.000000,31.000000 Z"/>
    <path style="fill:#ffffff;fill-rule:evenodd;stroke:none;fill-opacity:0.4666666666666667" d="M 375.000000,19.000000 147.000000,19.000000 236.000000,30.000000 Z"/>
    <path style="fill:#ffffff;fill-rule:evenodd;stroke:none;fill-opacity:0.4666666666666667" d="M 296.000000,8.000000 219.000000,10.000000 147.000000,19.000000 Z"/>
    <path style="fill:#ffffff;fill-rule:evenodd;stroke:none;fill-opacity:0.4666666666666667" d="M 70.000000,104.000000 80.000000,32.000000 32.000000,95.000000 Z"/>
    <path style="fill:#ffffff;fill-rule:evenodd;stroke:none;fill-opacity:0.4666666666666667" d="M 47.000000,168.000000 70.000000,104.000000 20.000000,154.000000 Z"/>
    <path style="fill:#ffffff;fill-rule:evenodd;stroke:none;fill-opacity:0.4666666666666667" d="M 57.000000,236.000000 47.000000,168.000000 19.000000,225.000000 Z"/>
    <path style="fill:#ffffff;fill-rule:evenodd;stroke:none;fill-opacity:0.0" d="M 82.000000,277.000000 57.000000,236.000000 19.000000,225.000000 Z"/>
    <path style="fill:#ffffff;fill-rule:evenodd;stroke:none;fill-opacity:0.4666666666666667" d="M 115.000000,320.000000 82.000000,277.000000 19.000000,225.000000 Z"/>
    <path style="fill:#ffffff;fill-rule:evenodd;stroke:none;fill-opacity:0.0" d="M 197.000000,354.000000 153.000000,343.000000 53.000000,344.000000 Z"/>
    <path style="fill:#ffffff;fill-rule:evenodd;stroke:none;fill-opacity:0.4666666666666667" d="M 262.000000,374.000000 197.000000,354.000000 53.000000,344.000000 Z"/>
    <path style="fill:#ffffff;fill-rule:evenodd;stroke:none;fill-opacity:0.4666666666666667" d="M 367.000000,395.000000 262.000000,374.000000 79.000000,388.000000 Z"/>
    <path style="fill:#ffffff;fill-rule:evenodd;stroke:none;fill-opacity:0.0" d="M 79.000000,388.000000 345.000000,447.000000 367.000000,395.000000 Z"/>
    <path style="fill:#ffffff;fill-rule:evenodd;stroke:none;fill-opacity:0.0" d="M 262.000000,374.000000 53.000000,344.000000 79.000000,388.000000 Z"/>
    <path style="fill:#ffffff;fill-rule:evenodd;stroke:none;fill-opacity:0.4666666666666667" d="M 53.000000,344.000000 153.000000,343.000000 115.000000,320.000000 Z"/>
    <path style="fill:#ffffff;fill-rule:evenodd;stroke:none;fill-opacity:0.0" d="M 115.000000,320.000000 19.000000,225.000000 53.000000,344.000000 Z"/>
    <path style="fill:#ffffff;fill-rule:evenodd;stroke:none;fill-opacity:0.0" d="M 47.000000,168.000000 20.000000,154.000000 19.000000,225.000000 Z"/>
    <path style="fill:#ffffff;fill-rule:evenodd;stroke:none;fill-opacity:0.0" d="M 70.000000,104.000000 32.000000,95.000000 20.000000,154.000000 Z"/>
    <path style="fill:#ffffff;fill-rule:evenodd;stroke:none;fill-opacity:0.0" d="M 80.000000,32.000000 42.000000,17.000000 32.000000,95.000000 Z"/>
    <path style="fill:#ffffff;fill-rule:evenodd;stroke:none;fill-opacity:0.4666666666666667" d="M 194.000000,32.000000 236.000000,30.000000 147.000000,19.000000 Z"/>
    <path style="fill:#ffffff;fill-rule:evenodd;stroke:none;fill-opacity:0.4666666666666667" d="M 146.000000,41.000000 194.000000,32.000000 104.000000,40.000000 Z"/>
    <path style="fill:#ffffff;fill-rule:evenodd;stroke:none;fill-opacity:0.0" d="M 118.000000,57.000000 146.000000,41.000000 104.000000,40.000000 Z"/>
    <path style="fill:#ffffff;fill-rule:evenodd;stroke:none;fill-opacity:0.4666666666666667" d="M 107.000000,88.000000 118.000000,57.000000 104.000000,40.000000 Z"/>
    <path style="fill:#ffffff;fill-rule:evenodd;stroke:none;fill-opacity:0.4666666666666667" d="M 104.000000,125.000000 107.000000,88.000000 82.000000,95.000000 Z"/>
    <path style="fill:#ffffff;fill-rule:evenodd;stroke:none;fill-opacity:0.4666666666666667" d="M 109.000000,163.000000 104.000000,125.000000 79.000000,159.000000 Z"/>
    <path style="fill:#ffffff;fill-rule:evenodd;stroke:none;fill-opacity:0.0" d="M 124.000000,201.000000 109.000000,163.000000 79.000000,159.000000 Z"/>
    <path style="fill:#ffffff;fill-rule:evenodd;stroke:none;fill-opacity:0.0" d="M 155.000000,240.000000 124.000000,201.000000 86.000000,208.000000 Z"/>
    <path style="fill:#ffffff;fill-rule:evenodd;stroke:none;fill-opacity:0.0" d="M 185.000000,275.000000 155.000000,240.000000 103.000000,242.000000 Z"/>
    <path style="fill:#ffffff;fill-rule:evenodd;stroke:none;fill-opacity:0.0" d="M 233.000000,296.000000 185.000000,275.000000 141.000000,288.000000 Z"/>
    <path style="fill:#ffffff;fill-rule:evenodd;stroke:none;fill-opacity:0.0" d="M 276.000000,311.000000 233.000000,296.000000 177.000000,311.000000 Z"/>
    <path style="fill:#ffffff;fill-rule:evenodd;stroke:none;fill-opacity:0.4666666666666667" d="M 326.000000,322.000000 276.000000,311.000000 177.000000,311.000000 Z"/>
    <path style="fill:#ffffff;fill-rule:evenodd;stroke:none;fill-opacity:0.4666666666666667" d="M 287.000000,78.000000 326.000000,93.000000 382.000000,113.000000 Z"/>
    <path style="fill:#ffffff;fill-rule:evenodd;stroke:none;fill-opacity:0.4666666666666667" d="M 180.000000,44.000000 180.000000,62.000000 230.000000,69.000000 Z"/>
    <path style="fill:#ffffff;fill-rule:evenodd;stroke:none;fill-opacity:0.0" d="M 180.000000,44.000000 230.000000,69.000000 287.000000,78.000000 Z"/>
    <path style="fill:#ffffff;fill-rule:evenodd;stroke:none;fill-opacity:0.4666666666666667" d="M 309.000000,41.000000 180.000000,44.000000 287.000000,78.000000 Z"/>
    <path style="fill:#ffffff;fill-rule:evenodd;stroke:none;fill-opacity:0.0" d="M 309.000000,41.000000 287.000000,78.000000 382.000000,113.000000 Z"/>
    <path style="fill:#ffffff;fill-rule:evenodd;stroke:none;fill-opacity:0.4666666666666667" d="M 309.000000,41.000000 382.000000,113.000000 448.000000,143.000000 Z"/>
    <path style="fill:#ffffff;fill-rule:evenodd;stroke:none;fill-opacity:0.0" d="M 309.000000,41.000000 448.000000,143.000000 471.000000,157.000000 Z"/>
    <path style="fill:#ffffff;fill-rule:evenodd;stroke:none;fill-opacity:0.4666666666666667" d="M 452.000000,95.000000 309.000000,41.000000 471.000000,157.000000 Z"/>
    <path style="fill:#ffffff;fill-rule:evenodd;stroke:none;fill-opacity:0.0" d="M 452.000000,95.000000 471.000000,157.000000 491.000000,189.000000 Z"/>
    <path style="fill:#ffffff;fill-rule:evenodd;stroke:none;fill-opacity:0.4666666666666667" d="M 510.000000,151.000000 452.000000,95.000000 491.000000,189.000000 Z"/>
    <path style="fill:#ffffff;fill-rule:evenodd;stroke:none;fill-opacity:0.0" d="M 510.000000,151.000000 491.000000,189.000000 487.000000,233.000000 Z"/>
    <path style="fill:#ffffff;fill-rule:evenodd;stroke:none;fill-opacity:0.4666666666666667" d="M 561.000000,210.000000 510.000000,151.000000 487.000000,233.000000 Z"/>
    <path style="fill:#ffffff;fill-rule:evenodd;stroke:none;fill-opacity:0.0" d="M 561.000000,210.000000 487.000000,233.000000 464.000000,274.000000 Z"/>
    <path style="fill:#ffffff;fill-rule:evenodd;stroke:none;fill-opacity:0.4666666666666667" d="M 561.000000,210.000000 464.000000,274.000000 422.000000,309.000000 Z"/>
    <path style="fill:#ffffff;fill-rule:evenodd;stroke:none;fill-opacity:0.0" d="M 552.000000,249.000000 561.000000,210.000000 422.000000,309.000000 Z"/>
    <path style="fill:#ffffff;fill-rule:evenodd;stroke:none;fill-opacity:0.4666666666666667" d="M 525.000000,286.000000 552.000000,249.000000 422.000000,309.000000 Z"/>
    <path style="fill:#ffffff;fill-rule:evenodd;stroke:none;fill-opacity:0.0" d="M 525.000000,286.000000 422.000000,309.000000 367.000000,322.000000 Z"/>
    <path style="fill:#ffffff;fill-rule:evenodd;stroke:none;fill-opacity:0.4666666666666667" d="M 495.000000,321.000000 525.000000,286.000000 367.000000,322.000000 Z"/>
    <path style="fill:#ffffff;fill-rule:evenodd;stroke:none;fill-opacity:0.4666666666666667" d="M 445.000000,346.000000 495.000000,321.000000 256.000000,341.000000 Z"/>
    <path style="fill:#ffffff;fill-rule:evenodd;stroke:none;fill-opacity:0.4666666666666667" d="M 330.000000,352.000000 374.000000,360.000000 445.000000,346.000000 Z"/>
    <path style="fill:#ffffff;fill-rule:evenodd;stroke:none;fill-opacity:0.0" d="M 445.000000,346.000000 256.000000,341.000000 330.000000,352.000000 Z"/>
    <path style="fill:#ffffff;fill-rule:evenodd;stroke:none;fill-opacity:0.0" d="M 256.000000,341.000000 495.000000,321.000000 367.000000,322.000000 Z"/>
    <path style="fill:#ffffff;fill-rule:evenodd;stroke:none;fill-opacity:0.4666666666666667" d="M 256.000000,341.000000 367.000000,322.000000 326.000000,322.000000 Z"/>
    <path style="fill:#ffffff;fill-rule:evenodd;stroke:none;fill-opacity:0.0" d="M 326.000000,322.000000 177.000000,311.000000 256.000000,341.000000 Z"/>
    <path style="fill:#ffffff;fill-rule:evenodd;stroke:none;fill-opacity:0.4666666666666667" d="M 233.000000,296.000000 141.000000,288.000000 177.000000,311.000000 Z"/>
    <path style="fill:#ffffff;fill-rule:evenodd;stroke:none;fill-opacity:0.4666666666666667" d="M 185.000000,275.000000 103.000000,242.000000 141.000000,288.000000 Z"/>
    <path style="fill:#ffffff;fill-rule:evenodd;stroke:none;fill-opacity:0.4666666666666667" d="M 155.000000,240.000000 86.000000,208.000000 103.000000,242.000000 Z"/>
    <path style="fill:#ffffff;fill-rule:evenodd;stroke:none;fill-opacity:0.4666666666666667" d="M 124.000000,201.000000 79.000000,159.000000 86.000000,208.000000 Z"/>
    <path style="fill:#ffffff;fill-rule:evenodd;stroke:none;fill-opacity:0.0" d="M 104.000000,125.000000 82.000000,95.000000 79.000000,159.000000 Z"/>
    <path style="fill:#ffffff;fill-rule:evenodd;stroke:none;fill-opacity:0.0" d="M 107.000000,88.000000 104.000000,40.000000 82.000000,95.000000 Z"/>
    <path style="fill:#ffffff;fill-rule:evenodd;stroke:none;fill-opacity:0.0" d="M 194.000000,32.000000 147.000000,19.000000 104.000000,40.000000 Z"/>
    <path style="fill:#ffffff;fill-rule:evenodd;stroke:none;fill-opacity:0.0" d="M 460.000000,195.000000 213.000000,112.000000 348.000000,186.000000 Z"/>
    <path style="fill:#ffffff;fill-rule:evenodd;stroke:none;fill-opacity:0.0" d="M 383.000000,297.000000 460.000000,195.000000 369.000000,262.000000 Z"/>
    <path style="fill:#ffffff;fill-rule:evenodd;stroke:none;fill-opacity:0.4666666666666667" d="M 369.000000,262.000000 330.000000,275.000000 383.000000,297.000000 Z"/>
    <path style="fill:#ffffff;fill-rule:evenodd;stroke:none;fill-opacity:0.4666666666666667" d="M 460.000000,195.000000 394.000000,238.000000 369.000000,262.000000 Z"/>
    <path style="fill:#ffffff;fill-rule:evenodd;stroke:none;fill-opacity:0.0" d="M 460.000000,195.000000 397.000000,205.000000 394.000000,238.000000 Z"/>
    <path style="fill:#ffffff;fill-rule:evenodd;stroke:none;fill-opacity:0.4666666666666667" d="M 460.000000,195.000000 348.000000,186.000000 397.000000,205.000000 Z"/>
    <path style="fill:#ffffff;fill-rule:evenodd;stroke:none;fill-opacity:0.4666666666666667" d="M 213.000000,112.000000 307.000000,176.000000 348.000000,186.000000 Z"/>
    <path style="fill:#ffffff;fill-rule:evenodd;stroke:none;fill-opacity:0.0" d="M 213.000000,112.000000 269.000000,160.000000 307.000000,176.000000 Z"/>
    <path style="fill:#ffffff;fill-rule:evenodd;stroke:none;fill-opacity:0.4666666666666667" d="M 213.000000,112.000000 247.000000,152.000000 269.000000,160.000000 Z"/>
    <path style="fill:#ffffff;fill-rule:evenodd;stroke:none;fill-opacity:0.0" d="M 213.000000,112.000000 211.000000,146.000000 247.000000,152.000000 Z"/>
    <path style="fill:#ffffff;fill-rule:evenodd;stroke:none;fill-opacity:0.4666666666666667" d="M 213.000000,112.000000 178.000000,121.000000 211.000000,146.000000 Z"/>
    <path style="fill:#ffffff;fill-rule:evenodd;stroke:none;fill-opacity:0.4666666666666667" d="M 143.000000,78.000000 180.000000,62.000000 126.000000,69.000000 Z"/>
    <path style="fill:#ffffff;fill-rule:evenodd;stroke:none;fill-opacity:0.4666666666666667" d="M 142.000000,121.000000 143.000000,78.000000 127.000000,119.000000 Z"/>
    <path style="fill:#ffffff;fill-rule:evenodd;stroke:none;fill-opacity:0.0" d="M 153.000000,168.000000 142.000000,121.000000 127.000000,119.000000 Z"/>
    <path style="fill:#ffffff;fill-rule:evenodd;stroke:none;fill-opacity:0.0" d="M 186.000000,219.000000 153.000000,168.000000 142.000000,179.000000 Z"/>
    <path style="fill:#ffffff;fill-rule:evenodd;stroke:none;fill-opacity:0.0" d="M 233.000000,253.000000 186.000000,219.000000 173.000000,237.000000 Z"/>
    <path style="fill:#ffffff;fill-rule:evenodd;stroke:none;fill-opacity:0.4666666666666667" d="M 383.000000,297.000000 330.000000,275.000000 275.000000,264.000000 Z"/>
    <path style="fill:#ffffff;fill-rule:evenodd;stroke:none;fill-opacity:0.0" d="M 383.000000,297.000000 275.000000,264.000000 233.000000,253.000000 Z"/>
    <path style="fill:#ffffff;fill-rule:evenodd;stroke:none;fill-opacity:0.4666666666666667" d="M 383.000000,297.000000 233.000000,253.000000 173.000000,237.000000 Z"/>
    <path style="fill:#ffffff;fill-rule:evenodd;stroke:none;fill-opacity:0.0" d="M 173.000000,237.000000 291.000000,299.000000 383.000000,297.000000 Z"/>
    <path style="fill:#ffffff;fill-rule:evenodd;stroke:none;fill-opacity:0.4666666666666667" d="M 186.000000,219.000000 142.000000,179.000000 173.000000,237.000000 Z"/>
    <path style="fill:#ffffff;fill-rule:evenodd;stroke:none;fill-opacity:0.4666666666666667" d="M 153.000000,168.000000 127.000000,119.000000 142.000000,179.000000 Z"/>
    <path style="fill:#ffffff;fill-rule:evenodd;stroke:none;fill-opacity:0.0" d="M 143.000000,78.000000 126.000000,69.000000 127.000000,119.000000 Z"/>
    <path style="fill:#ffffff;fill-rule:evenodd;stroke:none;fill-opacity:0.0" d="M 180.000000,62.000000 180.000000,44.000000 126.000000,69.000000 Z"/>
    <path style="fill:#ffffff;fill-rule:evenodd;stroke:none;fill-opacity:0.4666666666666667" d="M 208.000000,151.000000 211.000000,146.000000 178.000000,121.000000 Z"/>
    <path style="fill:#ffffff;fill-rule:evenodd;stroke:none;fill-opacity:0.4666666666666667" d="M 210.000000,170.000000 208.000000,151.000000 180.000000,153.000000 Z"/>
    <path style="fill:#ffffff;fill-rule:evenodd;stroke:none;fill-opacity:0.0" d="M 308.000000,201.000000 259.000000,189.000000 210.000000,198.000000 Z"/>
    <path style="fill:#ffffff;fill-rule:evenodd;stroke:none;fill-opacity:0.4666666666666667" d="M 347.000000,215.000000 308.000000,201.000000 210.000000,198.000000 Z"/>
    <path style="fill:#ffffff;fill-rule:evenodd;stroke:none;fill-opacity:0.4666666666666667" d="M 342.000000,236.000000 347.000000,215.000000 236.000000,223.000000 Z"/>
    <path style="fill:#ffffff;fill-rule:evenodd;stroke:none;fill-opacity:0.0" d="M 236.000000,223.000000 281.000000,240.000000 342.000000,236.000000 Z"/>
    <path style="fill:#ffffff;fill-rule:evenodd;stroke:none;fill-opacity:0.0" d="M 347.000000,215.000000 210.000000,198.000000 236.000000,223.000000 Z"/>
    <path style="fill:#ffffff;fill-rule:evenodd;stroke:none;fill-opacity:0.4666666666666667" d="M 210.000000,198.000000 259.000000,189.000000 210.000000,170.000000 Z"/>
    <path style="fill:#ffffff;fill-rule:evenodd;stroke:none;fill-opacity:0.0" d="M 210.000000,170.000000 180.000000,153.000000 210.000000,198.000000 Z"/>
    <path style="fill:#ffffff;fill-rule:evenodd;stroke:none;fill-opacity:0.0" d="M 208.000000,151.000000 178.000000,121.000000 180.000000,153.000000 Z"/>
    <path style="fill:none;stroke:#000000;stroke-width:1.0px;stroke-linecap:butt;stroke-linejoin:miter;stroke-opacity:1" d="M 147.000000,19.000000 296.000000,8.000000"/>
    <path style="fill:none;stroke:#000000;stroke-width:1.0px;stroke-linecap:butt;stroke-linejoin:miter;stroke-opacity:1" d="M 375.000000,19.000000 147.000000,19.000000"/>
    <path style="fill:none;stroke:#000000;stroke-width:1.0px;stroke-linecap:butt;stroke-linejoin:miter;stroke-opacity:1" d="M 236.000000,30.000000 375.000000,19.000000"/>
    <path style="fill:none;stroke:#000000;stroke-width:1.0px;stroke-linecap:butt;stroke-linejoin:miter;stroke-opacity:1" d="M 294.000000,31.000000 375.000000,19.000000"/>
    <path style="fill:none;stroke:#000000;stroke-width:1.0px;stroke-linecap:butt;stroke-linejoin:miter;stroke-opacity:1" d="M 323.000000,35.000000 375.000000,19.000000"/>
    <path style="fill:none;stroke:#000000;stroke-width:1.0px;stroke-linecap:butt;stroke-linejoin:miter;stroke-opacity:1" d="M 432.000000,43.000000 323.000000,35.000000"/>
    <path style="fill:none;stroke:#000000;stroke-width:1.0px;stroke-linecap:butt;stroke-linejoin:miter;stroke-opacity:1" d="M 355.000000,44.000000 432.000000,43.000000"/>
    <path style="fill:none;stroke:#000000;stroke-width:1.0px;stroke-linecap:butt;stroke-linejoin:miter;stroke-opacity:1" d="M 398.000000,51.000000 432.000000,43.000000"/>
    <path style="fill:none;stroke:#000000;stroke-width:1.0px;stroke-linecap:butt;stroke-linejoin:miter;stroke-opacity:1" d="M 430.000000,65.000000 432.000000,43.000000"/>
    <path style="fill:none;stroke:#000000;stroke-width:1.0px;stroke-linecap:butt;stroke-linejoin:miter;stroke-opacity:1" d="M 518.000000,76.000000 430.000000,65.000000"/>
    <path style="fill:none;stroke:#000000;stroke-width:1.0px;stroke-linecap:butt;stroke-linejoin:miter;stroke-opacity:1" d="M 459.000000,79.000000 518.000000,76.000000"/>
    <path style="fill:none;stroke:#000000;stroke-width:1.0px;stroke-linecap:butt;stroke-linejoin:miter;stroke-opacity:1" d="M 488.000000,96.000000 518.000000,76.000000"/>
    <path style="fill:none;stroke:#000000;stroke-width:1.0px;stroke-linecap:butt;stroke-linejoin:miter;stroke-opacity:1" d="M 529.000000,121.000000 518.000000,76.000000"/>
    <path style="fill:none;stroke:#000000;stroke-width:1.0px;stroke-linecap:butt;stroke-linejoin:miter;stroke-opacity:1" d="M 610.000000,139.000000 529.000000,121.000000"/>
    <path style="fill:none;stroke:#000000;stroke-width:1.0px;stroke-linecap:butt;stroke-linejoin:miter;stroke-opacity:1" d="M 565.000000,157.000000 610.000000,139.000000"/>
    <path style="fill:none;stroke:#000000;stroke-width:1.0px;stroke-linecap:butt;stroke-linejoin:miter;stroke-opacity:1" d="M 589.000000,199.000000 610.000000,139.000000"/>
    <path style="fill:none;stroke:#000000;stroke-width:1.0px;stroke-linecap:butt;stroke-linejoin:miter;stroke-opacity:1" d="M 583.000000,247.000000 610.000000,139.000000"/>
    <path style="fill:none;stroke:#000000;stroke-width:1.0px;stroke-linecap:butt;stroke-linejoin:miter;stroke-opacity:1" d="M 623.000000,350.000000 545.000000,330.000000"/>
    <path style="fill:none;stroke:#000000;stroke-width:1.0px;stroke-linecap:butt;stroke-linejoin:miter;stroke-opacity:1" d="M 623.000000,350.000000 573.000000,283.000000"/>
    <path style="fill:none;stroke:#000000;stroke-width:1.0px;stroke-linecap:butt;stroke-linejoin:miter;stroke-opacity:1" d="M 623.000000,350.000000 583.000000,247.000000"/>
    <path style="fill:none;stroke:#000000;stroke-width:1.0px;stroke-linecap:butt;stroke-linejoin:miter;stroke-opacity:1" d="M 481.000000,365.000000 623.000000,350.000000"/>
    <path style="fill:none;stroke:#000000;stroke-width:1.0px;stroke-linecap:butt;stroke-linejoin:miter;stroke-opacity:1" d="M 420.000000,390.000000 623.000000,350.000000"/>
    <path style="fill:none;stroke:#000000;stroke-width:1.0px;stroke-linecap:butt;stroke-linejoin:miter;stroke-opacity:1" d="M 345.000000,447.000000 420.000000,390.000000"/>
    <path style="fill:none;stroke:#000000;stroke-width:1.0px;stroke-linecap:butt;stroke-linejoin:miter;stroke-opacity:1" d="M 32.000000,95.000000 80.000000,32.000000"/>
    <path style="fill:none;stroke:#000000;stroke-width:1.0px;stroke-linecap:butt;stroke-linejoin:miter;stroke-opacity:1" d="M 70.000000,104.000000 32.000000,95.000000"/>
    <path style="fill:none;stroke:#000000;stroke-width:1.0px;stroke-linecap:butt;stroke-linejoin:miter;stroke-opacity:1" d="M 20.000000,154.000000 70.000000,104.000000"/>
    <path style="fill:none;stroke:#000000;stroke-width:1.0px;stroke-linecap:butt;stroke-linejoin:miter;stroke-opacity:1" d="M 47.000000,168.000000 20.000000,154.000000"/>
    <path style="fill:none;stroke:#000000;stroke-width:1.0px;stroke-linecap:butt;stroke-linejoin:miter;stroke-opacity:1" d="M 19.000000,225.000000 47.000000,168.000000"/>
    <path style="fill:none;stroke:#000000;stroke-width:1.0px;stroke-linecap:butt;stroke-linejoin:miter;stroke-opacity:1" d="M 57.000000,236.000000 19.000000,225.000000"/>
    <path style="fill:none;stroke:#000000;stroke-width:1.0px;stroke-linecap:butt;stroke-linejoin:miter;stroke-opacity:1" d="M 82.000000,277.000000 19.000000,225.000000"/>
    <path style="fill:none;stroke:#000000;stroke-width:1.0px;stroke-linecap:butt;stroke-linejoin:miter;stroke-opacity:1" d="M 115.000000,320.000000 19.000000,225.000000"/>
    <path style="fill:none;stroke:#000000;stroke-width:1.0px;stroke-linecap:butt;stroke-linejoin:miter;stroke-opacity:1" d="M 53.000000,344.000000 153.000000,343.000000"/>
    <path style="fill:none;stroke:#000000;stroke-width:1.0px;stroke-linecap:butt;stroke-linejoin:miter;stroke-opacity:1" d="M 53.000000,344.000000 115.000000,320.000000"/>
    <path style="fill:none;stroke:#000000;stroke-width:1.0px;stroke-linecap:butt;stroke-linejoin:miter;stroke-opacity:1" d="M 197.000000,354.000000 53.000000,344.000000"/>
    <path style="fill:none;stroke:#000000;stroke-width:1.0px;stroke-linecap:butt;stroke-linejoin:miter;stroke-opacity:1" d="M 262.000000,374.000000 53.000000,344.000000"/>
    <path style="fill:none;stroke:#000000;stroke-width:1.0px;stroke-linecap:butt;stroke-linejoin:miter;stroke-opacity:1" d="M 79.000000,388.000000 262.000000,374.000000"/>
    <path style="fill:none;stroke:#000000;stroke-width:1.0px;stroke-linecap:butt;stroke-linejoin:miter;stroke-opacity:1" d="M 367.000000,395.000000 79.000000,388.000000"/>
    <path style="fill:none;stroke:#000000;stroke-width:1.0px;stroke-linecap:butt;stroke-linejoin:miter;stroke-opacity:1" d="M 194.000000,32.000000 147.000000,19.000000"/>
    <path style="fill:none;stroke:#000000;stroke-width:1.0px;stroke-linecap:butt;stroke-linejoin:miter;stroke-opacity:1" d="M 104.000000,40.000000 194.000000,32.000000"/>
    <path style="fill:none;stroke:#000000;stroke-width:1.0px;stroke-linecap:butt;stroke-linejoin:miter;stroke-opacity:1" d="M 146.000000,41.000000 104.000000,40.000000"/>
    <path style="fill:none;stroke:#000000;stroke-width:1.0px;stroke-linecap:butt;stroke-linejoin:miter;stroke-opacity:1" d="M 118.000000,57.000000 104.000000,40.000000"/>
    <path style="fill:none;stroke:#000000;stroke-width:1.0px;stroke-linecap:butt;stroke-linejoin:miter;stroke-opacity:1" d="M 107.000000,88.000000 104.000000,40.000000"/>
    <path style="fill:none;stroke:#000000;stroke-width:1.0px;stroke-linecap:butt;stroke-linejoin:miter;stroke-opacity:1" d="M 82.000000,95.000000 107.000000,88.000000"/>
    <path style="fill:none;stroke:#000000;stroke-width:1.0px;stroke-linecap:butt;stroke-linejoin:miter;stroke-opacity:1" d="M 104.000000,125.000000 82.000000,95.000000"/>
    <path style="fill:none;stroke:#000000;stroke-width:1.0px;stroke-linecap:butt;stroke-linejoin:miter;stroke-opacity:1" d="M 79.000000,159.000000 104.000000,125.000000"/>
    <path style="fill:none;stroke:#000000;stroke-width:1.0px;stroke-linecap:butt;stroke-linejoin:miter;stroke-opacity:1" d="M 109.000000,163.000000 79.000000,159.000000"/>
    <path style="fill:none;stroke:#000000;stroke-width:1.0px;stroke-linecap:butt;stroke-linejoin:miter;stroke-opacity:1" d="M 124.000000,201.000000 79.000000,159.000000"/>
    <path style="fill:none;stroke:#000000;stroke-width:1.0px;stroke-linecap:butt;stroke-linejoin:miter;stroke-opacity:1" d="M 86.000000,208.000000 124.000000,201.000000"/>
    <path style="fill:none;stroke:#000000;stroke-width:1.0px;stroke-linecap:butt;stroke-linejoin:miter;stroke-opacity:1" d="M 155.000000,240.000000 86.000000,208.000000"/>
    <path style="fill:none;stroke:#000000;stroke-width:1.0px;stroke-linecap:butt;stroke-linejoin:miter;stroke-opacity:1" d="M 103.000000,242.000000 155.000000,240.000000"/>
    <path style="fill:none;stroke:#000000;stroke-width:1.0px;stroke-linecap:butt;stroke-linejoin:miter;stroke-opacity:1" d="M 185.000000,275.000000 103.000000,242.000000"/>
    <path style="fill:none;stroke:#000000;stroke-width:1.0px;stroke-linecap:butt;stroke-linejoin:miter;stroke-opacity:1" d="M 141.000000,288.000000 185.000000,275.000000"/>
    <path style="fill:none;stroke:#000000;stroke-width:1.0px;stroke-linecap:butt;stroke-linejoin:miter;stroke-opacity:1" d="M 233.000000,296.000000 141.000000,288.000000"/>
    <path style="fill:none;stroke:#000000;stroke-width:1.0px;stroke-linecap:butt;stroke-linejoin:miter;stroke-opacity:1" d="M 177.000000,311.000000 233.000000,296.000000"/>
    <path style="fill:none;stroke:#000000;stroke-width:1.0px;stroke-linecap:butt;stroke-linejoin:miter;stroke-opacity:1" d="M 276.000000,311.000000 177.000000,311.000000"/>
    <path style="fill:none;stroke:#000000;stroke-width:1.0px;stroke-linecap:butt;stroke-linejoin:miter;stroke-opacity:1" d="M 326.000000,322.000000 177.000000,311.000000"/>
    <path style="fill:none;stroke:#000000;stroke-width:1.0px;stroke-linecap:butt;stroke-linejoin:miter;stroke-opacity:1" d="M 287.000000,78.000000 382.000000,113.000000"/>
    <path style="fill:none;stroke:#000000;stroke-width:1.0px;stroke-linecap:butt;stroke-linejoin:miter;stroke-opacity:1" d="M 180.000000,44.000000 230.000000,69.000000"/>
    <path style="fill:none;stroke:#000000;stroke-width:1.0px;stroke-linecap:butt;stroke-linejoin:miter;stroke-opacity:1" d="M 180.000000,44.000000 287.000000,78.000000"/>
    <path style="fill:none;stroke:#000000;stroke-width:1.0px;stroke-linecap:butt;stroke-linejoin:miter;stroke-opacity:1" d="M 309.000000,41.000000 287.000000,78.000000"/>
    <path style="fill:none;stroke:#000000;stroke-width:1.0px;stroke-linecap:butt;stroke-linejoin:miter;stroke-opacity:1" d="M 309.000000,41.000000 382.000000,113.000000"/>
    <path style="fill:none;stroke:#000000;stroke-width:1.0px;stroke-linecap:butt;stroke-linejoin:miter;stroke-opacity:1" d="M 309.000000,41.000000 448.000000,143.000000"/>
    <path style="fill:none;stroke:#000000;stroke-width:1.0px;stroke-linecap:butt;stroke-linejoin:miter;stroke-opacity:1" d="M 309.000000,41.000000 471.000000,157.000000"/>
    <path style="fill:none;stroke:#000000;stroke-width:1.0px;stroke-linecap:butt;stroke-linejoin:miter;stroke-opacity:1" d="M 452.000000,95.000000 471.000000,157.000000"/>
    <path style="fill:none;stroke:#000000;stroke-width:1.0px;stroke-linecap:butt;stroke-linejoin:miter;stroke-opacity:1" d="M 452.000000,95.000000 491.000000,189.000000"/>
    <path style="fill:none;stroke:#000000;stroke-width:1.0px;stroke-linecap:butt;stroke-linejoin:miter;stroke-opacity:1" d="M 510.000000,151.000000 491.000000,189.000000"/>
    <path style="fill:none;stroke:#000000;stroke-width:1.0px;stroke-linecap:butt;stroke-linejoin:miter;stroke-opacity:1" d="M 510.000000,151.000000 487.000000,233.000000"/>
    <path style="fill:none;stroke:#000000;stroke-width:1.0px;stroke-linecap:butt;stroke-linejoin:miter;stroke-opacity:1" d="M 561.000000,210.000000 487.000000,233.000000"/>
    <path style="fill:none;stroke:#000000;stroke-width:1.0px;stroke-linecap:butt;stroke-linejoin:miter;stroke-opacity:1" d="M 561.000000,210.000000 464.000000,274.000000"/>
    <path style="fill:none;stroke:#000000;stroke-width:1.0px;stroke-linecap:butt;stroke-linejoin:miter;stroke-opacity:1" d="M 561.000000,210.000000 422.000000,309.000000"/>
    <path style="fill:none;stroke:#000000;stroke-width:1.0px;stroke-linecap:butt;stroke-linejoin:miter;stroke-opacity:1" d="M 552.000000,249.000000 422.000000,309.000000"/>
    <path style="fill:none;stroke:#000000;stroke-width:1.0px;stroke-linecap:butt;stroke-linejoin:miter;stroke-opacity:1" d="M 525.000000,286.000000 422.000000,309.000000"/>
    <path style="fill:none;stroke:#000000;stroke-width:1.0px;stroke-linecap:butt;stroke-linejoin:miter;stroke-opacity:1" d="M 525.000000,286.000000 367.000000,322.000000"/>
    <path style="fill:none;stroke:#000000;stroke-width:1.0px;stroke-linecap:butt;stroke-linejoin:miter;stroke-opacity:1" d="M 495.000000,321.000000 367.000000,322.000000"/>
    <path style="fill:none;stroke:#000000;stroke-width:1.0px;stroke-linecap:butt;stroke-linejoin:miter;stroke-opacity:1" d="M 256.000000,341.000000 495.000000,321.000000"/>
    <path style="fill:none;stroke:#000000;stroke-width:1.0px;stroke-linecap:butt;stroke-linejoin:miter;stroke-opacity:1" d="M 256.000000,341.000000 367.000000,322.000000"/>
    <path style="fill:none;stroke:#000000;stroke-width:1.0px;stroke-linecap:butt;stroke-linejoin:miter;stroke-opacity:1" d="M 256.000000,341.000000 326.000000,322.000000"/>
    <path style="fill:none;stroke:#000000;stroke-width:1.0px;stroke-linecap:butt;stroke-linejoin:miter;stroke-opacity:1" d="M 445.000000,346.000000 256.000000,341.000000"/>
    <path style="fill:none;stroke:#000000;stroke-width:1.0px;stroke-linecap:butt;stroke-linejoin:miter;stroke-opacity:1" d="M 330.000000,352.000000 445.000000,346.000000"/>
    <path style="fill:none;stroke:#000000;stroke-width:1.0px;stroke-linecap:butt;stroke-linejoin:miter;stroke-opacity:1" d="M 211.000000,146.000000 213.000000,112.000000"/>
    <path style="fill:none;stroke:#000000;stroke-width:1.0px;stroke-linecap:butt;stroke-linejoin:miter;stroke-opacity:1" d="M 247.000000,152.000000 213.000000,112.000000"/>
    <path style="fill:none;stroke:#000000;stroke-width:1.0px;stroke-linecap:butt;stroke-linejoin:miter;stroke-opacity:1" d="M 269.000000,160.000000 213.000000,112.000000"/>
    <path style="fill:none;stroke:#000000;stroke-width:1.0px;stroke-linecap:butt;stroke-linejoin:miter;stroke-opacity:1" d="M 307.000000,176.000000 213.000000,112.000000"/>
    <path style="fill:none;stroke:#000000;stroke-width:1.0px;stroke-linecap:butt;stroke-linejoin:miter;stroke-opacity:1" d="M 348.000000,186.000000 213.000000,112.000000"/>
    <path style="fill:none;stroke:#000000;stroke-width:1.0px;stroke-linecap:butt;stroke-linejoin:miter;stroke-opacity:1" d="M 460.000000,195.000000 348.000000,186.000000"/>
    <path style="fill:none;stroke:#000000;stroke-width:1.0px;stroke-linecap:butt;stroke-linejoin:miter;stroke-opacity:1" d="M 397.000000,205.000000 460.000000,195.000000"/>
    <path style="fill:none;stroke:#000000;stroke-width:1.0px;stroke-linecap:butt;stroke-linejoin:miter;stroke-opacity:1" d="M 394.000000,238.000000 460.000000,195.000000"/>
    <path style="fill:none;stroke:#000000;stroke-width:1.0px;stroke-linecap:butt;stroke-linejoin:miter;stroke-opacity:1" d="M 369.000000,262.000000 460.000000,195.000000"/>
    <path style="fill:none;stroke:#000000;stroke-width:1.0px;stroke-linecap:butt;stroke-linejoin:miter;stroke-opacity:1" d="M 383.000000,297.000000 369.000000,262.000000"/>
    <path style="fill:none;stroke:#000000;stroke-width:1.0px;stroke-linecap:butt;stroke-linejoin:miter;stroke-opacity:1" d="M 126.000000,69.000000 180.000000,62.000000"/>
    <path style="fill:none;stroke:#000000;stroke-width:1.0px;stroke-linecap:butt;stroke-linejoin:miter;stroke-opacity:1" d="M 143.000000,78.000000 126.000000,69.000000"/>
    <path style="fill:none;stroke:#000000;stroke-width:1.0px;stroke-linecap:butt;stroke-linejoin:miter;stroke-opacity:1" d="M 127.000000,119.000000 143.000000,78.000000"/>
    <path style="fill:none;stroke:#000000;stroke-width:1.0px;stroke-linecap:butt;stroke-linejoin:miter;stroke-opacity:1" d="M 142.000000,121.000000 127.000000,119.000000"/>
    <path style="fill:none;stroke:#000000;stroke-width:1.0px;stroke-linecap:butt;stroke-linejoin:miter;stroke-opacity:1" d="M 153.000000,168.000000 127.000000,119.000000"/>
    <path style="fill:none;stroke:#000000;stroke-width:1.0px;stroke-linecap:butt;stroke-linejoin:miter;stroke-opacity:1" d="M 142.000000,179.000000 153.000000,168.000000"/>
    <path style="fill:none;stroke:#000000;stroke-width:1.0px;stroke-linecap:butt;stroke-linejoin:miter;stroke-opacity:1" d="M 186.000000,219.000000 142.000000,179.000000"/>
    <path style="fill:none;stroke:#000000;stroke-width:1.0px;stroke-linecap:butt;stroke-linejoin:miter;stroke-opacity:1" d="M 173.000000,237.000000 186.000000,219.000000"/>
    <path style="fill:none;stroke:#000000;stroke-width:1.0px;stroke-linecap:butt;stroke-linejoin:miter;stroke-opacity:1" d="M 233.000000,253.000000 173.000000,237.000000"/>
    <path style="fill:none;stroke:#000000;stroke-width:1.0px;stroke-linecap:butt;stroke-linejoin:miter;stroke-opacity:1" d="M 383.000000,297.000000 275.000000,264.000000"/>
    <path style="fill:none;stroke:#000000;stroke-width:1.0px;stroke-linecap:butt;stroke-linejoin:miter;stroke-opacity:1" d="M 383.000000,297.000000 233.000000,253.000000"/>
    <path style="fill:none;stroke:#000000;stroke-width:1.0px;stroke-linecap:butt;stroke-linejoin:miter;stroke-opacity:1" d="M 383.000000,297.000000 173.000000,237.000000"/>
    <path style="fill:none;stroke:#000000;stroke-width:1.0px;stroke-linecap:butt;stroke-linejoin:miter;stroke-opacity:1" d="M 208.000000,151.000000 178.000000,121.000000"/>
    <path style="fill:none;stroke:#000000;stroke-width:1.0px;stroke-linecap:butt;stroke-linejoin:miter;stroke-opacity:1" d="M 180.000000,153.000000 208.000000,151.000000"/>
    <path style="fill:none;stroke:#000000;stroke-width:1.0px;stroke-linecap:butt;stroke-linejoin:miter;stroke-opacity:1" d="M 210.000000,170.000000 180.000000,153.000000"/>
    <path style="fill:none;stroke:#000000;stroke-width:1.0px;stroke-linecap:butt;stroke-linejoin:miter;stroke-opacity:1" d="M 210.000000,198.000000 259.000000,189.000000"/>
    <path style="fill:none;stroke:#000000;stroke-width:1.0px;stroke-linecap:butt;stroke-linejoin:miter;stroke-opacity:1" d="M 210.000000,198.000000 210.000000,170.000000"/>
    <path style="fill:none;stroke:#000000;stroke-width:1.0px;stroke-linecap:butt;stroke-linejoin:miter;stroke-opacity:1" d="M 308.000000,201.000000 210.000000,198.000000"/>
    <path style="fill:none;stroke:#000000;stroke-width:1.0px;stroke-linecap:butt;stroke-linejoin:miter;stroke-opacity:1" d="M 347.000000,215.000000 210.000000,198.000000"/>
    <path style="fill:none;stroke:#000000;stroke-width:1.0px;stroke-linecap:butt;stroke-linejoin:miter;stroke-opacity:1" d="M 236.000000,223.000000 347.000000,215.000000"/>
    <path style="fill:none;stroke:#000000;stroke-width:1.0px;stroke-linecap:butt;stroke-linejoin:miter;stroke-opacity:1" d="M 342.000000,236.000000 236.000000,223.000000"/>
    <path style="fill:none;stroke:#000000;stroke-width:1.0px;stroke-linecap:butt;stroke-linejoin:miter;stroke-opacity:1" d="M 236.000000,30.000000 147.000000,19.000000"/>
    <path style="fill:none;stroke:#000000;stroke-width:1.0px;stroke-linecap:butt;stroke-linejoin:miter;stroke-opacity:1" d="M 180.000000,62.000000 180.000000,44.000000"/>
    <path style="fill:none;stroke:#000000;stroke-width:1.0px;stroke-linecap:butt;stroke-linejoin:miter;stroke-opacity:1" d="M 211.000000,146.000000 178.000000,121.000000"/>
    <path style="fill:none;stroke:#000000;stroke-width:1.0px;stroke-linecap:butt;stroke-linejoin:miter;stroke-opacity:1" d="M 383.000000,297.000000 330.000000,275.000000"/>
    <path style="fill:none;stroke:#000000;stroke-width:1.0px;stroke-linecap:butt;stroke-linejoin:miter;stroke-opacity:1" d="M 345.000000,447.000000 367.000000,395.000000"/>
    <path style="fill:none;stroke:#000000;stroke-width:1.0px;stroke-linecap:butt;stroke-linejoin:miter;stroke-opacity:1" d="M 213.000000,112.000000 460.000000,195.000000 383.000000,297.000000 291.000000,299.000000 173.000000,237.000000 142.000000,179.000000 127.000000,119.000000 126.000000,69.000000 180.000000,44.000000 309.000000,41.000000 452.000000,95.000000 510.000000,151.000000 561.000000,210.000000 552.000000,249.000000 525.000000,286.000000 495.000000,321.000000 445.000000,346.000000 374.000000,360.000000 330.000000,352.000000 256.000000,341.000000 177.000000,311.000000 141.000000,288.000000 103.000000,242.000000 86.000000,208.000000 79.000000,159.000000 82.000000,95.000000 104.000000,40.000000 147.000000,19.000000 219.000000,10.000000 296.000000,8.000000 375.000000,19.000000 432.000000,43.000000 518.000000,76.000000 610.000000,139.000000 623.000000,350.000000 345.000000,447.000000 79.000000,388.000000 53.000000,344.000000 19.000000,225.000000 20.000000,154.000000 32.000000,95.000000 42.000000,17.000000 80.000000,32.000000 70.000000,104.000000 47.000000,168.000000 57.000000,236.000000 82.000000,277.000000 115.000000,320.000000 153.000000,343.000000 197.000000,354.000000 262.000000,374.000000 367.000000,395.000000 420.000000,390.000000 481.000000,365.000000 545.000000,330.000000 573.000000,283.000000 583.000000,247.000000 589.000000,199.000000 565.000000,157.000000 529.000000,121.000000 488.000000,96.000000 459.000000,79.000000 430.000000,65.000000 398.000000,51.000000 355.000000,44.000000 323.000000,35.000000 294.000000,31.000000 236.000000,30.000000 194.000000,32.000000 146.000000,41.000000 118.000000,57.000000 107.000000,88.000000 104.000000,125.000000 109.000000,163.000000 124.000000,201.000000 155.000000,240.000000 185.000000,275.000000 233.000000,296.000000 276.000000,311.000000 326.000000,322.000000 367.000000,322.000000 422.000000,309.000000 464.000000,274.000000 487.000000,233.000000 491.000000,189.000000 471.000000,157.000000 448.000000,143.000000 382.000000,113.000000 326.000000,93.000000 287.000000,78.000000 230.000000,69.000000 180.000000,62.000000 143.000000,78.000000 142.000000,121.000000 153.000000,168.000000 186.000000,219.000000 233.000000,253.000000 275.000000,264.000000 330.000000,275.000000 369.000000,262.000000 394.000000,238.000000 397.000000,205.000000 348.000000,186.000000 307.000000,176.000000 269.000000,160.000000 247.000000,152.000000 211.000000,146.000000 208.000000,151.000000 210.000000,170.000000 259.000000,189.000000 308.000000,201.000000 347.000000,215.000000 342.000000,236.000000 281.000000,240.000000 236.000000,223.000000 210.000000,198.000000 180.000000,153.000000 178.000000,121.000000 Z"/>
    <path style="fill:none;stroke:#000000;stroke-width:1.0px;stroke-linecap:butt;stroke-linejoin:miter;stroke-opacity:1" d="M 210.000000,109.000000 216.000000,109.000000 216.000000,115.000000 210.000000,115.000000 210.000000,109.000000 Z"/>
    <path style="fill:#000000;fill-rule:evenodd;stroke:none;fill-opacity:1.0" d="M 463.000000,195.000000C 463.000000 193.343146 461.656854 192.000000 460.000000 192.000000C 458.343146 192.000000 457.000000 193.343146 457.000000 195.000000C 457.000000 196.656854 458.343146 198.000000 460.000000 198.000000C 461.656854 198.000000 463.000000 196.656854 463.000000 195.000000 Z"/>
    <path style="fill:#000000;fill-rule:evenodd;stroke:none;fill-opacity:1.0" d="M 386.000000,297.000000C 386.000000 295.343146 384.656854 294.000000 383.000000 294.000000C 381.343146 294.000000 380.000000 295.343146 380.000000 297.000000C 380.000000 298.656854 381.343146 300.000000 383.000000 300.000000C 384.656854 300.000000 386.000000 298.656854 386.000000 297.000000 Z"/>
    <path style="fill:#000000;fill-rule:evenodd;stroke:none;fill-opacity:1.0" d="M 288.000000,296.000000 294.000000,296.000000 294.000000,302.000000 288.000000,302.000000 288.000000,296.000000 Z"/>
    <path style="fill:#000000;fill-rule:evenodd;stroke:none;fill-opacity:1.0" d="M 176.000000,237.000000C 176.000000 235.343146 174.656854 234.000000 173.000000 234.000000C 171.343146 234.000000 170.000000 235.343146 170.000000 237.000000C 170.000000 238.656854 171.343146 240.000000 173.000000 240.000000C 174.656854 240.000000 176.000000 238.656854 176.000000 237.000000 Z"/>
    <path style="fill:#000000;fill-rule:evenodd;stroke:none;fill-opacity:1.0" d="M 145.000000,179.000000C 145.000000 177.343146 143.656854 176.000000 142.000000 176.000000C 140.343146 176.000000 139.000000 177.343146 139.000000 179.000000C 139.000000 180.656854 140.343146 182.000000 142.000000 182.000000C 143.656854 182.000000 145.000000 180.656854 145.000000 179.000000 Z"/>
    <path style="fill:#000000;fill-rule:evenodd;stroke:none;fill-opacity:1.0" d="M 130.000000,119.000000C 130.000000 117.343146 128.656854 116.000000 127.000000 116.000000C 125.343146 116.000000 124.000000 117.343146 124.000000 119.000000C 124.000000 120.656854 125.343146 122.000000 127.000000 122.000000C 128.656854 122.000000 130.000000 120.656854 130.000000 119.000000 Z"/>
    <path style="fill:#000000;fill-rule:evenodd;stroke:none;fill-opacity:1.0" d="M 129.000000,69.000000C 129.000000 67.343146 127.656854 66.000000 126.000000 66.000000C 124.343146 66.000000 123.000000 67.343146 123.000000 69.000000C 123.000000 70.656854 124.343146 72.000000 126.000000 72.000000C 127.656854 72.000000 129.000000 70.656854 129.000000 69.000000 Z"/>
    <path style="fill:#000000;fill-rule:evenodd;stroke:none;fill-opacity:1.0" d="M 183.000000,44.000000C 183.000000 42.343146 181.656854 41.000000 180.000000 41.000000C 178.343146 41.000000 177.000000 42.343146 177.000000 44.000000C 177.000000 45.656854 178.343146 47.000000 180.000000 47.000000C 181.656854 47.000000 183.000000 45.656854 183.000000 44.000000 Z"/>
    <path style="fill:none;stroke:#000000;stroke-width:1.0px;stroke-linecap:butt;stroke-linejoin:miter;stroke-opacity:1" d="M 306.000000,38.000000 312.000000,38.000000 312.000000,44.000000 306.000000,44.000000 306.000000,38.000000 Z"/>
    <path style="fill:#000000;fill-rule:evenodd;stroke:none;fill-opacity:1.0" d="M 455.000000,95.000000C 455.000000 93.343146 453.656854 92.000000 452.000000 92.000000C 450.343146 92.000000 449.000000 93.343146 449.000000 95.000000C 449.000000 96.656854 450.343146 98.000000 452.000000 98.000000C 453.656854 98.000000 455.000000 96.656854 455.000000 95.000000 Z"/>
    <path style="fill:#000000;fill-rule:evenodd;stroke:none;fill-opacity:1.0" d="M 513.000000,151.000000C 513.000000 149.343146 511.656854 148.000000 510.000000 148.000000C 508.343146 148.000000 507.000000 149.343146 507.000000 151.000000C 507.000000 152.656854 508.343146 154.000000 510.000000 154.000000C 511.656854 154.000000 513.000000 152.656854 513.000000 151.000000 Z"/>
    <path style="fill:#000000;fill-rule:evenodd;stroke:none;fill-opacity:1.0" d="M 564.000000,210.000000C 564.000000 208.343146 562.656854 207.000000 561.000000 207.000000C 559.343146 207.000000 558.000000 208.343146 558.000000 210.000000C 558.000000 211.656854 559.343146 213.000000 561.000000 213.000000C 562.656854 213.000000 564.000000 211.656854 564.000000 210.000000 Z"/>
    <path style="fill:#000000;fill-rule:evenodd;stroke:none;fill-opacity:1.0" d="M 555.000000,249.000000C 555.000000 247.343146 553.656854 246.000000 552.000000 246.000000C 550.343146 246.000000 549.000000 247.343146 549.000000 249.000000C 549.000000 250.656854 550.343146 252.000000 552.000000 252.000000C 553.656854 252.000000 555.000000 250.656854 555.000000 249.000000 Z"/>
    <path style="fill:#000000;fill-rule:evenodd;stroke:none;fill-opacity:1.0" d="M 528.000000,286.000000C 528.000000 284.343146 526.656854 283.000000 525.000000 283.000000C 523.343146 283.000000 522.000000 284.343146 522.000000 286.000000C 522.000000 287.656854 523.343146 289.000000 525.000000 289.000000C 526.656854 289.000000 528.000000 287.656854 528.000000 286.000000 Z"/>
    <path style="fill:#000000;fill-rule:evenodd;stroke:none;fill-opacity:1.0" d="M 498.000000,321.000000C 498.000000 319.343146 496.656854 318.000000 495.000000 318.000000C 493.343146 318.000000 492.000000 319.343146 492.000000 321.000000C 492.000000 322.656854 493.343146 324.000000 495.000000 324.000000C 496.656854 324.000000 498.000000 322.656854 498.000000 321.000000 Z"/>
    <path style="fill:#000000;fill-rule:evenodd;stroke:none;fill-opacity:1.0" d="M 448.000000,346.000000C 448.000000 344.343146 446.656854 343.000000 445.000000 343.000000C 443.343146 343.000000 442.000000 344.343146 442.000000 346.000000C 442.000000 347.656854 443.343146 349.000000 445.000000 349.000000C 446.656854 349.000000 448.000000 347.656854 448.000000 346.000000 Z"/>
    <path style="fill:#000000;fill-rule:evenodd;stroke:none;fill-opacity:1.0" d="M 371.000000,357.000000 377.000000,357.000000 377.000000,363.000000 371.000000,363.000000 371.000000,357.000000 Z"/>
    <path style="fill:#000000;fill-rule:evenodd;stroke:none;fill-opacity:1.0" d="M 333.000000,352.000000C 333.000000 350.343146 331.656854 349.000000 330.000000 349.000000C 328.343146 349.000000 327.000000 350.343146 327.000000 352.000000C 327.000000 353.656854 328.343146 355.000000 330.000000 355.000000C 331.656854 355.000000 333.000000 353.656854 333.000000 352.000000 Z"/>
    <path style="fill:#000000;fill-rule:evenodd;stroke:none;fill-opacity:1.0" d="M 259.000000,341.000000C 259.000000 339.343146 257.656854 338.000000 256.000000 338.000000C 254.343146 338.000000 253.000000 339.343146 253.000000 341.000000C 253.000000 342.656854 254.343146 344.000000 256.000000 344.000000C 257.656854 344.000000 259.000000 342.656854 259.000000 341.000000 Z"/>
    <path style="fill:#000000;fill-rule:evenodd;stroke:none;fill-opacity:1.0" d="M 180.000000,311.000000C 180.000000 309.343146 178.656854 308.000000 177.000000 308.000000C 175.343146 308.000000 174.000000 309.343146 174.000000 311.000000C 174.000000 312.656854 175.343146 314.000000 177.000000 314.000000C 178.656854 314.000000 180.000000 312.656854 180.000000 311.000000 Z"/>
    <path style="fill:#000000;fill-rule:evenodd;stroke:none;fill-opacity:1.0" d="M 144.000000,288.000000C 144.000000 286.343146 142.656854 285.000000 141.000000 285.000000C 139.343146 285.000000 138.000000 286.343146 138.000000 288.000000C 138.000000 289.656854 139.343146 291.000000 141.000000 291.000000C 142.656854 291.000000 144.000000 289.656854 144.000000 288.000000 Z"/>
    <path style="fill:#000000;fill-rule:evenodd;stroke:none;fill-opacity:1.0" d="M 106.000000,242.000000C 106.000000 240.343146 104.656854 239.000000 103.000000 239.000000C 101.343146 239.000000 100.000000 240.343146 100.000000 242.000000C 100.000000 243.656854 101.343146 245.000000 103.000000 245.000000C 104.656854 245.000000 106.000000 243.656854 106.000000 242.000000 Z"/>
    <path style="fill:#000000;fill-rule:evenodd;stroke:none;fill-opacity:1.0" d="M 89.000000,208.000000C 89.000000 206.343146 87.656854 205.000000 86.000000 205.000000C 84.343146 205.000000 83.000000 206.343146 83.000000 208.000000C 83.000000 209.656854 84.343146 211.000000 86.000000 211.000000C 87.656854 211.000000 89.000000 209.656854 89.000000 208.000000 Z"/>
    <path style="fill:#000000;fill-rule:evenodd;stroke:none;fill-opacity:1.0" d="M 82.000000,159.000000C 82.000000 157.343146 80.656854 156.000000 79.000000 156.000000C 77.343146 156.000000 76.000000 157.343146 76.000000 159.000000C 76.000000 160.656854 77.343146 162.000000 79.000000 162.000000C 80.656854 162.000000 82.000000 160.656854 82.000000 159.000000 Z"/>
    <path style="fill:#000000;fill-rule:evenodd;stroke:none;fill-opacity:1.0" d="M 85.000000,95.000000C 85.000000 93.343146 83.656854 92.000000 82.000000 92.000000C 80.343146 92.000000 79.000000 93.343146 79.000000 95.000000C 79.000000 96.656854 80.343146 98.000000 82.000000 98.000000C 83.656854 98.000000 85.000000 96.656854 85.000000 95.000000 Z"/>
    <path style="fill:#000000;fill-rule:evenodd;stroke:none;fill-opacity:1.0" d="M 107.000000,40.000000C 107.000000 38.343146 105.656854 37.000000 104.000000 37.000000C 102.343146 37.000000 101.000000 38.343146 101.000000 40.000000C 101.000000 41.656854 102.343146 43.000000 104.000000 43.000000C 105.656854 43.000000 107.000000 41.656854 107.000000 40.000000 Z"/>
    <path style="fill:#000000;fill-rule:evenodd;stroke:none;fill-opacity:1.0" d="M 150.000000,19.000000C 150.000000 17.343146 148.656854 16.000000 147.000000 16.000000C 145.343146 16.000000 144.000000 17.343146 144.000000 19.000000C 144.000000 20.656854 145.343146 22.000000 147.000000 22.000000C 148.656854 22.000000 150.000000 20.656854 150.000000 19.000000 Z"/>
    <path style="fill:#000000;fill-rule:evenodd;stroke:none;fill-opacity:1.0" d="M 222.000000,10.000000C 222.000000 8.343146 220.656854 7.000000 219.000000 7.000000C 217.343146 7.000000 216.000000 8.343146 216.000000 10.000000C 216.000000 11.656854 217.343146 13.000000 219.000000 13.000000C 220.656854 13.000000 222.000000 11.656854 222.000000 10.000000 Z"/>
    <path style="fill:none;stroke:#000000;stroke-width:1.0px;stroke-linecap:butt;stroke-linejoin:miter;stroke-opacity:1" d="M 293.000000,5.000000 299.000000,5.000000 299.000000,11.000000 293.000000,11.000000 293.000000,5.000000 Z"/>
    <path style="fill:#000000;fill-rule:evenodd;stroke:none;fill-opacity:1.0" d="M 378.000000,19.000000C 378.000000 17.343146 376.656854 16.000000 375.000000 16.000000C 373.343146 16.000000 372.000000 17.343146 372.000000 19.000000C 372.000000 20.656854 373.343146 22.000000 375.000000 22.000000C 376.656854 22.000000 378.000000 20.656854 378.000000 19.000000 Z"/>
    <path style="fill:#000000;fill-rule:evenodd;stroke:none;fill-opacity:1.0" d="M 435.000000,43.000000C 435.000000 41.343146 433.656854 40.000000 432.000000 40.000000C 430.343146 40.000000 429.000000 41.343146 429.000000 43.000000C 429.000000 44.656854 430.343146 46.000000 432.000000 46.000000C 433.656854 46.000000 435.000000 44.656854 435.000000 43.000000 Z"/>
    <path style="fill:#000000;fill-rule:evenodd;stroke:none;fill-opacity:1.0" d="M 521.000000,76.000000C 521.000000 74.343146 519.656854 73.000000 518.000000 73.000000C 516.343146 73.000000 515.000000 74.343146 515.000000 76.000000C 515.000000 77.656854 516.343146 79.000000 518.000000 79.000000C 519.656854 79.000000 521.000000 77.656854 521.000000 76.000000 Z"/>
    <path style="fill:#000000;fill-rule:evenodd;stroke:none;fill-opacity:1.0" d="M 613.000000,139.000000C 613.000000 137.343146 611.656854 136.000000 610.000000 136.000000C 608.343146 136.000000 607.000000 137.343146 607.000000 139.000000C 607.000000 140.656854 608.343146 142.000000 610.000000 142.000000C 611.656854 142.000000 613.000000 140.656854 613.000000 139.000000 Z"/>
    <path style="fill:#000000;fill-rule:evenodd;stroke:none;fill-opacity:1.0" d="M 626.000000,350.000000C 626.000000 348.343146 624.656854 347.000000 623.000000 347.000000C 621.343146 347.000000 620.000000 348.343146 620.000000 350.000000C 620.000000 351.656854 621.343146 353.000000 623.000000 353.000000C 624.656854 353.000000 626.000000 351.656854 626.000000 350.000000 Z"/>
    <path style="fill:#000000;fill-rule:evenodd;stroke:none;fill-opacity:1.0" d="M 342.000000,444.000000 348.000000,444.000000 348.000000,450.000000 342.000000,450.000000 342.000000,444.000000 Z"/>
    <path style="fill:#000000;fill-rule:evenodd;stroke:none;fill-opacity:1.0" d="M 82.000000,388.000000C 82.000000 386.343146 80.656854 385.000000 79.000000 385.000000C 77.343146 385.000000 76.000000 386.343146 76.000000 388.000000C 76.000000 389.656854 77.343146 391.000000 79.000000 391.000000C 80.656854 391.000000 82.000000 389.656854 82.000000 388.000000 Z"/>
    <path style="fill:#000000;fill-rule:evenodd;stroke:none;fill-opacity:1.0" d="M 56.000000,344.000000C 56.000000 342.343146 54.656854 341.000000 53.000000 341.000000C 51.343146 341.000000 50.000000 342.343146 50.000000 344.000000C 50.000000 345.656854 51.343146 347.000000 53.000000 347.000000C 54.656854 347.000000 56.000000 345.656854 56.000000 344.000000 Z"/>
    <path style="fill:#000000;fill-rule:evenodd;stroke:none;fill-opacity:1.0" d="M 22.000000,225.000000C 22.000000 223.343146 20.656854 222.000000 19.000000 222.000000C 17.343146 222.000000 16.000000 223.343146 16.000000 225.000000C 16.000000 226.656854 17.343146 228.000000 19.000000 228.000000C 20.656854 228.000000 22.000000 226.656854 22.000000 225.000000 Z"/>
    <path style="fill:#000000;fill-rule:evenodd;stroke:none;fill-opacity:1.0" d="M 23.000000,154.000000C 23.000000 152.343146 21.656854 151.000000 20.000000 151.000000C 18.343146 151.000000 17.000000 152.343146 17.000000 154.000000C 17.000000 155.656854 18.343146 157.000000 20.000000 157.000000C 21.656854 157.000000 23.000000 155.656854 23.000000 154.000000 Z"/>
    <path style="fill:#000000;fill-rule:evenodd;stroke:none;fill-opacity:1.0" d="M 35.000000,95.000000C 35.000000 93.343146 33.656854 92.000000 32.000000 92.000000C 30.343146 92.000000 29.000000 93.343146 29.000000 95.000000C 29.000000 96.656854 30.343146 98.000000 32.000000 98.000000C 33.656854 98.000000 35.000000 96.656854 35.000000 95.000000 Z"/>
    <path style="fill:none;stroke:#000000;stroke-width:1.0px;stroke-linecap:butt;stroke-linejoin:miter;stroke-opacity:1" d="M 39.000000,14.000000 45.000000,14.000000 45.000000,20.000000 39.000000,20.000000 39.000000,14.000000 Z"/>
    <path style="fill:#000000;fill-rule:evenodd;stroke:none;fill-opacity:1.0" d="M 83.000000,32.000000C 83.000000 30.343146 81.656854 29.000000 80.000000 29.000000C 78.343146 29.000000 77.000000 30.343146 77.000000 32.000000C 77.000000 33.656854 78.343146 35.000000 80.000000 35.000000C 81.656854 35.000000 83.000000 33.656854 83.000000 32.000000 Z"/>
    <path style="fill:#000000;fill-rule:evenodd;stroke:none;fill-opacity:1.0" d="M 73.000000,104.000000C 73.000000 102.343146 71.656854 101.000000 70.000000 101.000000C 68.343146 101.000000 67.000000 102.343146 67.000000 104.000000C 67.000000 105.656854 68.343146 107.000000 70.000000 107.000000C 71.656854 107.000000 73.000000 105.656854 73.000000 104.000000 Z"/>
    <path style="fill:#000000;fill-rule:evenodd;stroke:none;fill-opacity:1.0" d="M 50.000000,168.000000C 50.000000 166.343146 48.656854 165.000000 47.000000 165.000000C 45.343146 165.000000 44.000000 166.343146 44.000000 168.000000C 44.000000 169.656854 45.343146 171.000000 47.000000 171.000000C 48.656854 171.000000 50.000000 169.656854 50.000000 168.000000 Z"/>
    <path style="fill:#000000;fill-rule:evenodd;stroke:none;fill-opacity:1.0" d="M 60.000000,236.000000C 60.000000 234.343146 58.656854 233.000000 57.000000 233.000000C 55.343146 233.000000 54.000000 234.343146 54.000000 236.000000C 54.000000 237.656854 55.343146 239.000000 57.000000 239.000000C 58.656854 239.000000 60.000000 237.656854 60.000000 236.000000 Z"/>
    <path style="fill:#000000;fill-rule:evenodd;stroke:none;fill-opacity:1.0" d="M 85.000000,277.000000C 85.000000 275.343146 83.656854 274.000000 82.000000 274.000000C 80.343146 274.000000 79.000000 275.343146 79.000000 277.000000C 79.000000 278.656854 80.343146 280.000000 82.000000 280.000000C 83.656854 280.000000 85.000000 278.656854 85.000000 277.000000 Z"/>
    <path style="fill:#000000;fill-rule:evenodd;stroke:none;fill-opacity:1.0" d="M 118.000000,320.000000C 118.000000 318.343146 116.656854 317.000000 115.000000 317.000000C 113.343146 317.000000 112.000000 318.343146 112.000000 320.000000C 112.000000 321.656854 113.343146 323.000000 115.000000 323.000000C 116.656854 323.000000 118.000000 321.656854 118.000000 320.000000 Z"/>
    <path style="fill:#000000;fill-rule:evenodd;stroke:none;fill-opacity:1.0" d="M 156.000000,343.000000C 156.000000 341.343146 154.656854 340.000000 153.000000 340.000000C 151.343146 340.000000 150.000000 341.343146 150.000000 343.000000C 150.000000 344.656854 151.343146 346.000000 153.000000 346.000000C 154.656854 346.000000 156.000000 344.656854 156.000000 343.000000 Z"/>
    <path style="fill:#000000;fill-rule:evenodd;stroke:none;fill-opacity:1.0" d="M 200.000000,354.000000C 200.000000 352.343146 198.656854 351.000000 197.000000 351.000000C 195.343146 351.000000 194.000000 352.343146 194.000000 354.000000C 194.000000 355.656854 195.343146 357.000000 197.000000 357.000000C 198.656854 357.000000 200.000000 355.656854 200.000000 354.000000 Z"/>
    <path style="fill:#000000;fill-rule:evenodd;stroke:none;fill-opacity:1.0" d="M 265.000000,374.000000C 265.000000 372.343146 263.656854 371.000000 262.000000 371.000000C 260.343146 371.000000 259.000000 372.343146 259.000000 374.000000C 259.000000 375.656854 260.343146 377.000000 262.000000 377.000000C 263.656854 377.000000 265.000000 375.656854 265.000000 374.000000 Z"/>
    <path style="fill:#000000;fill-rule:evenodd;stroke:none;fill-opacity:1.0" d="M 367.000000,398.000000 363.000000,391.000000 371.000000,391.000000 Z"/>
    <path style="fill:#000000;fill-rule:evenodd;stroke:none;fill-opacity:1.0" d="M 423.000000,390.000000C 423.000000 388.343146 421.656854 387.000000 420.000000 387.000000C 418.343146 387.000000 417.000000 388.343146 417.000000 390.000000C 417.000000 391.656854 418.343146 393.000000 420.000000 393.000000C 421.656854 393.000000 423.000000 391.656854 423.000000 390.000000 Z"/>
    <path style="fill:#000000;fill-rule:evenodd;stroke:none;fill-opacity:1.0" d="M 484.000000,365.000000C 484.000000 363.343146 482.656854 362.000000 481.000000 362.000000C 479.343146 362.000000 478.000000 363.343146 478.000000 365.000000C 478.000000 366.656854 479.343146 368.000000 481.000000 368.000000C 482.656854 368.000000 484.000000 366.656854 484.000000 365.000000 Z"/>
    <path style="fill:#000000;fill-rule:evenodd;stroke:none;fill-opacity:1.0" d="M 548.000000,330.000000C 548.000000 328.343146 546.656854 327.000000 545.000000 327.000000C 543.343146 327.000000 542.000000 328.343146 542.000000 330.000000C 542.000000 331.656854 543.343146 333.000000 545.000000 333.000000C 546.656854 333.000000 548.000000 331.656854 548.000000 330.000000 Z"/>
    <path style="fill:#000000;fill-rule:evenodd;stroke:none;fill-opacity:1.0" d="M 576.000000,283.000000C 576.000000 281.343146 574.656854 280.000000 573.000000 280.000000C 571.343146 280.000000 570.000000 281.343146 570.000000 283.000000C 570.000000 284.656854 571.343146 286.000000 573.000000 286.000000C 574.656854 286.000000 576.000000 284.656854 576.000000 283.000000 Z"/>
    <path style="fill:#000000;fill-rule:evenodd;stroke:none;fill-opacity:1.0" d="M 586.000000,247.000000C 586.000000 245.343146 584.656854 244.000000 583.000000 244.000000C 581.343146 244.000000 580.000000 245.343146 580.000000 247.000000C 580.000000 248.656854 581.343146 250.000000 583.000000 250.000000C 584.656854 250.000000 586.000000 248.656854 586.000000 247.000000 Z"/>
    <path style="fill:#000000;fill-rule:evenodd;stroke:none;fill-opacity:1.0" d="M 592.000000,199.000000C 592.000000 197.343146 590.656854 196.000000 589.000000 196.000000C 587.343146 196.000000 586.000000 197.343146 586.000000 199.000000C 586.000000 200.656854 587.343146 202.000000 589.000000 202.000000C 590.656854 202.000000 592.000000 200.656854 592.000000 199.000000 Z"/>
    <path style="fill:#000000;fill-rule:evenodd;stroke:none;fill-opacity:1.0" d="M 568.000000,157.000000C 568.000000 155.343146 566.656854 154.000000 565.000000 154.000000C 563.343146 154.000000 562.000000 155.343146 562.000000 157.000000C 562.000000 158.656854 563.343146 160.000000 565.000000 160.000000C 566.656854 160.000000 568.000000 158.656854 568.000000 157.000000 Z"/>
    <path style="fill:#000000;fill-rule:evenodd;stroke:none;fill-opacity:1.0" d="M 532.000000,121.000000C 532.000000 119.343146 530.656854 118.000000 529.000000 118.000000C 527.343146 118.000000 526.000000 119.343146 526.000000 121.000000C 526.000000 122.656854 527.343146 124.000000 529.000000 124.000000C 530.656854 124.000000 532.000000 122.656854 532.000000 121.000000 Z"/>
    <path style="fill:#000000;fill-rule:evenodd;stroke:none;fill-opacity:1.0" d="M 491.000000,96.000000C 491.000000 94.343146 489.656854 93.000000 488.000000 93.000000C 486.343146 93.000000 485.000000 94.343146 485.000000 96.000000C 485.000000 97.656854 486.343146 99.000000 488.000000 99.000000C 489.656854 99.000000 491.000000 97.656854 491.000000 96.000000 Z"/>
    <path style="fill:#000000;fill-rule:evenodd;stroke:none;fill-opacity:1.0" d="M 462.000000,79.000000C 462.000000 77.343146 460.656854 76.000000 459.000000 76.000000C 457.343146 76.000000 456.000000 77.343146 456.000000 79.000000C 456.000000 80.656854 457.343146 82.000000 459.000000 82.000000C 460.656854 82.000000 462.000000 80.656854 462.000000 79.000000 Z"/>
    <path style="fill:#000000;fill-rule:evenodd;stroke:none;fill-opacity:1.0" d="M 433.000000,65.000000C 433.000000 63.343146 431.656854 62.000000 430.000000 62.000000C 428.343146 62.000000 427.000000 63.343146 427.000000 65.000000C 427.000000 66.656854 428.343146 68.000000 430.000000 68.000000C 431.656854 68.000000 433.000000 66.656854 433.000000 65.000000 Z"/>
    <path style="fill:#000000;fill-rule:evenodd;stroke:none;fill-opacity:1.0" d="M 401.000000,51.000000C 401.000000 49.343146 399.656854 48.000000 398.000000 48.000000C 396.343146 48.000000 395.000000 49.343146 395.000000 51.000000C 395.000000 52.656854 396.343146 54.000000 398.000000 54.000000C 399.656854 54.000000 401.000000 52.656854 401.000000 51.000000 Z"/>
    <path style="fill:#000000;fill-rule:evenodd;stroke:none;fill-opacity:1.0" d="M 358.000000,44.000000C 358.000000 42.343146 356.656854 41.000000 355.000000 41.000000C 353.343146 41.000000 352.000000 42.343146 352.000000 44.000000C 352.000000 45.656854 353.343146 47.000000 355.000000 47.000000C 356.656854 47.000000 358.000000 45.656854 358.000000 44.000000 Z"/>
    <path style="fill:#000000;fill-rule:evenodd;stroke:none;fill-opacity:1.0" d="M 326.000000,35.000000C 326.000000 33.343146 324.656854 32.000000 323.000000 32.000000C 321.343146 32.000000 320.000000 33.343146 320.000000 35.000000C 320.000000 36.656854 321.343146 38.000000 323.000000 38.000000C 324.656854 38.000000 326.000000 36.656854 326.000000 35.000000 Z"/>
    <path style="fill:#000000;fill-rule:evenodd;stroke:none;fill-opacity:1.0" d="M 297.000000,31.000000C 297.000000 29.343146 295.656854 28.000000 294.000000 28.000000C 292.343146 28.000000 291.000000 29.343146 291.000000 31.000000C 291.000000 32.656854 292.343146 34.000000 294.000000 34.000000C 295.656854 34.000000 297.000000 32.656854 297.000000 31.000000 Z"/>
    <path style="fill:#000000;fill-rule:evenodd;stroke:none;fill-opacity:1.0" d="M 236.000000,26.000000 232.000000,34.000000 240.000000,34.000000 Z"/>
    <path style="fill:#000000;fill-rule:evenodd;stroke:none;fill-opacity:1.0" d="M 197.000000,32.000000C 197.000000 30.343146 195.656854 29.000000 194.000000 29.000000C 192.343146 29.000000 191.000000 30.343146 191.000000 32.000000C 191.000000 33.656854 192.343146 35.000000 194.000000 35.000000C 195.656854 35.000000 197.000000 33.656854 197.000000 32.000000 Z"/>
    <path style="fill:#000000;fill-rule:evenodd;stroke:none;fill-opacity:1.0" d="M 149.000000,41.000000C 149.000000 39.343146 147.656854 38.000000 146.000000 38.000000C 144.343146 38.000000 143.000000 39.343146 143.000000 41.000000C 143.000000 42.656854 144.343146 44.000000 146.000000 44.000000C 147.656854 44.000000 149.000000 42.656854 149.000000 41.000000 Z"/>
    <path style="fill:#000000;fill-rule:evenodd;stroke:none;fill-opacity:1.0" d="M 121.000000,57.000000C 121.000000 55.343146 119.656854 54.000000 118.000000 54.000000C 116.343146 54.000000 115.000000 55.343146 115.000000 57.000000C 115.000000 58.656854 116.343146 60.000000 118.000000 60.000000C 119.656854 60.000000 121.000000 58.656854 121.000000 57.000000 Z"/>
    <path style="fill:#000000;fill-rule:evenodd;stroke:none;fill-opacity:1.0" d="M 110.000000,88.000000C 110.000000 86.343146 108.656854 85.000000 107.000000 85.000000C 105.343146 85.000000 104.000000 86.343146 104.000000 88.000000C 104.000000 89.656854 105.343146 91.000000 107.000000 91.000000C 108.656854 91.000000 110.000000 89.656854 110.000000 88.000000 Z"/>
    <path style="fill:#000000;fill-rule:evenodd;stroke:none;fill-opacity:1.0" d="M 107.000000,125.000000C 107.000000 123.343146 105.656854 122.000000 104.000000 122.000000C 102.343146 122.000000 101.000000 123.343146 101.000000 125.000000C 101.000000 126.656854 102.343146 128.000000 104.000000 128.000000C 105.656854 128.000000 107.000000 126.656854 107.000000 125.000000 Z"/>
    <path style="fill:#000000;fill-rule:evenodd;stroke:none;fill-opacity:1.0" d="M 112.000000,163.000000C 112.000000 161.343146 110.656854 160.000000 109.000000 160.000000C 107.343146 160.000000 106.000000 161.343146 106.000000 163.000000C 106.000000 164.656854 107.343146 166.000000 109.000000 166.000000C 110.656854 166.000000 112.000000 164.656854 112.000000 163.000000 Z"/>
    <path style="fill:#000000;fill-rule:evenodd;stroke:none;fill-opacity:1.0" d="M 127.000000,201.000000C 127.000000 199.343146 125.656854 198.000000 124.000000 198.000000C 122.343146 198.000000 121.000000 199.343146 121.000000 201.000000C 121.000000 202.656854 122.343146 204.000000 124.000000 204.000000C 125.656854 204.000000 127.000000 202.656854 127.000000 201.000000 Z"/>
    <path style="fill:#000000;fill-rule:evenodd;stroke:none;fill-opacity:1.0" d="M 158.000000,240.000000C 158.000000 238.343146 156.656854 237.000000 155.000000 237.000000C 153.343146 237.000000 152.000000 238.343146 152.000000 240.000000C 152.000000 241.656854 153.343146 243.000000 155.000000 243.000000C 156.656854 243.000000 158.000000 241.656854 158.000000 240.000000 Z"/>
    <path style="fill:#000000;fill-rule:evenodd;stroke:none;fill-opacity:1.0" d="M 188.000000,275.000000C 188.000000 273.343146 186.656854 272.000000 185.000000 272.000000C 183.343146 272.000000 182.000000 273.343146 182.000000 275.000000C 182.000000 276.656854 183.343146 278.000000 185.000000 278.000000C 186.656854 278.000000 188.000000 276.656854 188.000000 275.000000 Z"/>
    <path style="fill:#000000;fill-rule:evenodd;stroke:none;fill-opacity:1.0" d="M 236.000000,296.000000C 236.000000 294.343146 234.656854 293.000000 233.000000 293.000000C 231.343146 293.000000 230.000000 294.343146 230.000000 296.000000C 230.000000 297.656854 231.343146 299.000000 233.000000 299.000000C 234.656854 299.000000 236.000000 297.656854 236.000000 296.000000 Z"/>
    <path style="fill:#000000;fill-rule:evenodd;stroke:none;fill-opacity:1.0" d="M 279.000000,311.000000C 279.000000 309.343146 277.656854 308.000000 276.000000 308.000000C 274.343146 308.000000 273.000000 309.343146 273.000000 311.000000C 273.000000 312.656854 274.343146 314.000000 276.000000 314.000000C 277.656854 314.000000 279.000000 312.656854 279.000000 311.000000 Z"/>
    <path style="fill:#000000;fill-rule:evenodd;stroke:none;fill-opacity:1.0" d="M 329.000000,322.000000C 329.000000 320.343146 327.656854 319.000000 326.000000 319.000000C 324.343146 319.000000 323.000000 320.343146 323.000000 322.000000C 323.000000 323.656854 324.343146 325.000000 326.000000 325.000000C 327.656854 325.000000 329.000000 323.656854 329.000000 322.000000 Z"/>
    <path style="fill:#000000;fill-rule:evenodd;stroke:none;fill-opacity:1.0" d="M 370.000000,322.000000C 370.000000 320.343146 368.656854 319.000000 367.000000 319.000000C 365.343146 319.000000 364.000000 320.343146 364.000000 322.000000C 364.000000 323.656854 365.343146 325.000000 367.000000 325.000000C 368.656854 325.000000 370.000000 323.656854 370.000000 322.000000 Z"/>
    <path style="fill:#000000;fill-rule:evenodd;stroke:none;fill-opacity:1.0" d="M 425.000000,309.000000C 425.000000 307.343146 423.656854 306.000000 422.000000 306.000000C 420.343146 306.000000 419.000000 307.343146 419.000000 309.000000C 419.000000 310.656854 420.343146 312.000000 422.000000 312.000000C 423.656854 312.000000 425.000000 310.656854 425.000000 309.000000 Z"/>
    <path style="fill:#000000;fill-rule:evenodd;stroke:none;fill-opacity:1.0" d="M 467.000000,274.000000C 467.000000 272.343146 465.656854 271.000000 464.000000 271.000000C 462.343146 271.000000 461.000000 272.343146 461.000000 274.000000C 461.000000 275.656854 462.343146 277.000000 464.000000 277.000000C 465.656854 277.000000 467.000000 275.656854 467.000000 274.000000 Z"/>
    <path style="fill:#000000;fill-rule:evenodd;stroke:none;fill-opacity:1.0" d="M 490.000000,233.000000C 490.000000 231.343146 488.656854 230.000000 487.000000 230.000000C 485.343146 230.000000 484.000000 231.343146 484.000000 233.000000C 484.000000 234.656854 485.343146 236.000000 487.000000 236.000000C 488.656854 236.000000 490.000000 234.656854 490.000000 233.000000 Z"/>
    <path style="fill:#000000;fill-rule:evenodd;stroke:none;fill-opacity:1.0" d="M 494.000000,189.000000C 494.000000 187.343146 492.656854 186.000000 491.000000 186.000000C 489.343146 186.000000 488.000000 187.343146 488.000000 189.000000C 488.000000 190.656854 489.343146 192.000000 491.000000 192.000000C 492.656854 192.000000 494.000000 190.656854 494.000000 189.000000 Z"/>
    <path style="fill:#000000;fill-rule:evenodd;stroke:none;fill-opacity:1.0" d="M 474.000000,157.000000C 474.000000 155.343146 472.656854 154.000000 471.000000 154.000000C 469.343146 154.000000 468.000000 155.343146 468.000000 157.000000C 468.000000 158.656854 469.343146 160.000000 471.000000 160.000000C 472.656854 160.000000 474.000000 158.656854 474.000000 157.000000 Z"/>
    <path style="fill:#000000;fill-rule:evenodd;stroke:none;fill-opacity:1.0" d="M 451.000000,143.000000C 451.000000 141.343146 449.656854 140.000000 448.000000 140.000000C 446.343146 140.000000 445.000000 141.343146 445.000000 143.000000C 445.000000 144.656854 446.343146 146.000000 448.000000 146.000000C 449.656854 146.000000 451.000000 144.656854 451.000000 143.000000 Z"/>
    <path style="fill:#000000;fill-rule:evenodd;stroke:none;fill-opacity:1.0" d="M 385.000000,113.000000C 385.000000 111.343146 383.656854 110.000000 382.000000 110.000000C 380.343146 110.000000 379.000000 111.343146 379.000000 113.000000C 379.000000 114.656854 380.343146 116.000000 382.000000 116.000000C 383.656854 116.000000 385.000000 114.656854 385.000000 113.000000 Z"/>
    <path style="fill:#000000;fill-rule:evenodd;stroke:none;fill-opacity:1.0" d="M 329.000000,93.000000C 329.000000 91.343146 327.656854 90.000000 326.000000 90.000000C 324.343146 90.000000 323.000000 91.343146 323.000000 93.000000C 323.000000 94.656854 324.343146 96.000000 326.000000 96.000000C 327.656854 96.000000 329.000000 94.656854 329.000000 93.000000 Z"/>
    <path style="fill:#000000;fill-rule:evenodd;stroke:none;fill-opacity:1.0" d="M 290.000000,78.000000C 290.000000 76.343146 288.656854 75.000000 287.000000 75.000000C 285.343146 75.000000 284.000000 76.343146 284.000000 78.000000C 284.000000 79.656854 285.343146 81.000000 287.000000 81.000000C 288.656854 81.000000 290.000000 79.656854 290.000000 78.000000 Z"/>
    <path style="fill:#000000;fill-rule:evenodd;stroke:none;fill-opacity:1.0" d="M 233.000000,69.000000C 233.000000 67.343146 231.656854 66.000000 230.000000 66.000000C 228.343146 66.000000 227.000000 67.343146 227.000000 69.000000C 227.000000 70.656854 228.343146 72.000000 230.000000 72.000000C 231.656854 72.000000 233.000000 70.656854 233.000000 69.000000 Z"/>
    <path style="fill:#000000;fill-rule:evenodd;stroke:none;fill-opacity:1.0" d="M 180.000000,58.000000 176.000000,66.000000 184.000000,66.000000 Z"/>
    <path style="fill:#000000;fill-rule:evenodd;stroke:none;fill-opacity:1.0" d="M 146.000000,78.000000C 146.000000 76.343146 144.656854 75.000000 143.000000 75.000000C 141.343146 75.000000 140.000000 76.343146 140.000000 78.000000C 140.000000 79.656854 141.343146 81.000000 143.000000 81.000000C 144.656854 81.000000 146.000000 79.656854 146.000000 78.000000 Z"/>
    <path style="fill:#000000;fill-rule:evenodd;stroke:none;fill-opacity:1.0" d="M 145.000000,121.000000C 145.000000 119.343146 143.656854 118.000000 142.000000 118.000000C 140.343146 118.000000 139.000000 119.343146 139.000000 121.000000C 139.000000 122.656854 140.343146 124.000000 142.000000 124.000000C 143.656854 124.000000 145.000000 122.656854 145.000000 121.000000 Z"/>
    <path style="fill:#000000;fill-rule:evenodd;stroke:none;fill-opacity:1.0" d="M 156.000000,168.000000C 156.000000 166.343146 154.656854 165.000000 153.000000 165.000000C 151.343146 165.000000 150.000000 166.343146 150.000000 168.000000C 150.000000 169.656854 151.343146 171.000000 153.000000 171.000000C 154.656854 171.000000 156.000000 169.656854 156.000000 168.000000 Z"/>
    <path style="fill:#000000;fill-rule:evenodd;stroke:none;fill-opacity:1.0" d="M 189.000000,219.000000C 189.000000 217.343146 187.656854 216.000000 186.000000 216.000000C 184.343146 216.000000 183.000000 217.343146 183.000000 219.000000C 183.000000 220.656854 184.343146 222.000000 186.000000 222.000000C 187.656854 222.000000 189.000000 220.656854 189.000000 219.000000 Z"/>
    <path style="fill:#000000;fill-rule:evenodd;stroke:none;fill-opacity:1.0" d="M 236.000000,253.000000C 236.000000 251.343146 234.656854 250.000000 233.000000 250.000000C 231.343146 250.000000 230.000000 251.343146 230.000000 253.000000C 230.000000 254.656854 231.343146 256.000000 233.000000 256.000000C 234.656854 256.000000 236.000000 254.656854 236.000000 253.000000 Z"/>
    <path style="fill:#000000;fill-rule:evenodd;stroke:none;fill-opacity:1.0" d="M 278.000000,264.000000C 278.000000 262.343146 276.656854 261.000000 275.000000 261.000000C 273.343146 261.000000 272.000000 262.343146 272.000000 264.000000C 272.000000 265.656854 273.343146 267.000000 275.000000 267.000000C 276.656854 267.000000 278.000000 265.656854 278.000000 264.000000 Z"/>
    <path style="fill:#000000;fill-rule:evenodd;stroke:none;fill-opacity:1.0" d="M 330.000000,278.000000 326.000000,271.000000 334.000000,271.000000 Z"/>
    <path style="fill:#000000;fill-rule:evenodd;stroke:none;fill-opacity:1.0" d="M 372.000000,262.000000C 372.000000 260.343146 370.656854 259.000000 369.000000 259.000000C 367.343146 259.000000 366.000000 260.343146 366.000000 262.000000C 366.000000 263.656854 367.343146 265.000000 369.000000 265.000000C 370.656854 265.000000 372.000000 263.656854 372.000000 262.000000 Z"/>
    <path style="fill:#000000;fill-rule:evenodd;stroke:none;fill-opacity:1.0" d="M 397.000000,238.000000C 397.000000 236.343146 395.656854 235.000000 394.000000 235.000000C 392.343146 235.000000 391.000000 236.343146 391.000000 238.000000C 391.000000 239.656854 392.343146 241.000000 394.000000 241.000000C 395.656854 241.000000 397.000000 239.656854 397.000000 238.000000 Z"/>
    <path style="fill:#000000;fill-rule:evenodd;stroke:none;fill-opacity:1.0" d="M 400.000000,205.000000C 400.000000 203.343146 398.656854 202.000000 397.000000 202.000000C 395.343146 202.000000 394.000000 203.343146 394.000000 205.000000C 394.000000 206.656854 395.343146 208.000000 397.000000 208.000000C 398.656854 208.000000 400.000000 206.656854 400.000000 205.000000 Z"/>
    <path style="fill:#000000;fill-rule:evenodd;stroke:none;fill-opacity:1.0" d="M 351.000000,186.000000C 351.000000 184.343146 349.656854 183.000000 348.000000 183.000000C 346.343146 183.000000 345.000000 184.343146 345.000000 186.000000C 345.000000 187.656854 346.343146 189.000000 348.000000 189.000000C 349.656854 189.000000 351.000000 187.656854 351.000000 186.000000 Z"/>
    <path style="fill:#000000;fill-rule:evenodd;stroke:none;fill-opacity:1.0" d="M 310.000000,176.000000C 310.000000 174.343146 308.656854 173.000000 307.000000 173.000000C 305.343146 173.000000 304.000000 174.343146 304.000000 176.000000C 304.000000 177.656854 305.343146 179.000000 307.000000 179.000000C 308.656854 179.000000 310.000000 177.656854 310.000000 176.000000 Z"/>
    <path style="fill:#000000;fill-rule:evenodd;stroke:none;fill-opacity:1.0" d="M 272.000000,160.000000C 272.000000 158.343146 270.656854 157.000000 269.000000 157.000000C 267.343146 157.000000 266.000000 158.343146 266.000000 160.000000C 266.000000 161.656854 267.343146 163.000000 269.000000 163.000000C 270.656854 163.000000 272.000000 161.656854 272.000000 160.000000 Z"/>
    <path style="fill:#000000;fill-rule:evenodd;stroke:none;fill-opacity:1.0" d="M 250.000000,152.000000C 250.000000 150.343146 248.656854 149.000000 247.000000 149.000000C 245.343146 149.000000 244.000000 150.343146 244.000000 152.000000C 244.000000 153.656854 245.343146 155.000000 247.000000 155.000000C 248.656854 155.000000 250.000000 153.656854 250.000000 152.000000 Z"/>
    <path style="fill:#000000;fill-rule:evenodd;stroke:none;fill-opacity:1.0" d="M 211.000000,142.000000 207.000000,150.000000 215.000000,150.000000 Z"/>
    <path style="fill:#000000;fill-rule:evenodd;stroke:none;fill-opacity:1.0" d="M 211.000000,151.000000C 211.000000 149.343146 209.656854 148.000000 208.000000 148.000000C 206.343146 148.000000 205.000000 149.343146 205.000000 151.000000C 205.000000 152.656854 206.343146 154.000000 208.000000 154.000000C 209.656854 154.000000 211.000000 152.656854 211.000000 151.000000 Z"/>
    <path style="fill:#000000;fill-rule:evenodd;stroke:none;fill-opacity:1.0" d="M 213.000000,170.000000C 213.000000 168.343146 211.656854 167.000000 210.000000 167.000000C 208.343146 167.000000 207.000000 168.343146 207.000000 170.000000C 207.000000 171.656854 208.343146 173.000000 210.000000 173.000000C 211.656854 173.000000 213.000000 171.656854 213.000000 170.000000 Z"/>
    <path style="fill:#000000;fill-rule:evenodd;stroke:none;fill-opacity:1.0" d="M 262.000000,189.000000C 262.000000 187.343146 260.656854 186.000000 259.000000 186.000000C 257.343146 186.000000 256.000000 187.343146 256.000000 189.000000C 256.000000 190.656854 257.343146 192.000000 259.000000 192.000000C 260.656854 192.000000 262.000000 190.656854 262.000000 189.000000 Z"/>
    <path style="fill:#000000;fill-rule:evenodd;stroke:none;fill-opacity:1.0" d="M 311.000000,201.000000C 311.000000 199.343146 309.656854 198.000000 308.000000 198.000000C 306.343146 198.000000 305.000000 199.343146 305.000000 201.000000C 305.000000 202.656854 306.343146 204.000000 308.000000 204.000000C 309.656854 204.000000 311.000000 202.656854 311.000000 201.000000 Z"/>
    <path style="fill:#000000;fill-rule:evenodd;stroke:none;fill-opacity:1.0" d="M 350.000000,215.000000C 350.000000 213.343146 348.656854 212.000000 347.000000 212.000000C 345.343146 212.000000 344.000000 213.343146 344.000000 215.000000C 344.000000 216.656854 345.343146 218.000000 347.000000 218.000000C 348.656854 218.000000 350.000000 216.656854 350.000000 215.000000 Z"/>
    <path style="fill:#000000;fill-rule:evenodd;stroke:none;fill-opacity:1.0" d="M 345.000000,236.000000C 345.000000 234.343146 343.656854 233.000000 342.000000 233.000000C 340.343146 233.000000 339.000000 234.343146 339.000000 236.000000C 339.000000 237.656854 340.343146 239.000000 342.000000 239.000000C 343.656854 239.000000 345.000000 237.656854 345.000000 236.000000 Z"/>
    <path style="fill:#000000;fill-rule:evenodd;stroke:none;fill-opacity:1.0" d="M 278.000000,237.000000 284.000000,237.000000 284.000000,243.000000 278.000000,243.000000 278.000000,237.000000 Z"/>
    <path style="fill:#000000;fill-rule:evenodd;stroke:none;fill-opacity:1.0" d="M 239.000000,223.000000C 239.000000 221.343146 237.656854 220.000000 236.000000 220.000000C 234.343146 220.000000 233.000000 221.343146 233.000000 223.000000C 233.000000 224.656854 234.343146 226.000000 236.000000 226.000000C 237.656854 226.000000 239.000000 224.656854 239.000000 223.000000 Z"/>
    <path style="fill:#000000;fill-rule:evenodd;stroke:none;fill-opacity:1.0" d="M 213.000000,198.000000C 213.000000 196.343146 211.656854 195.000000 210.000000 195.000000C 208.343146 195.000000 207.000000 196.343146 207.000000 198.000000C 207.000000 199.656854 208.343146 201.000000 210.000000 201.000000C 211.656854 201.000000 213.000000 199.656854 213.000000 198.000000 Z"/>
    <path style="fill:#000000;fill-rule:evenodd;stroke:none;fill-opacity:1.0" d="M 183.000000,153.000000C 183.000000 151.343146 181.656854 150.000000 180.000000 150.000000C 178.343146 150.000000 177.000000 151.343146 177.000000 153.000000C 177.000000 154.656854 178.343146 156.000000 180.000000 156.000000C 181.656854 156.000000 183.000000 154.656854 183.000000 153.000000 Z"/>
    <path style="fill:#000000;fill-rule:evenodd;stroke:none;fill-opacity:1.0" d="M 181.000000,121.000000C 181.000000 119.343146 179.656854 118.000000 178.000000 118.000000C 176.343146 118.000000 175.000000 119.343146 175.000000 121.000000C 175.000000 122.656854 176.343146 124.000000 178.000000 124.000000C 179.656854 124.000000 181.000000 122.656854 181.000000 121.000000 Z"/>
</svg>
